<svg width="45" height="18" viewBox="0 0 45 18" fill="none" xmlns="http://www.w3.org/2000/svg">
<rect width="45" height="18" rx="2" fill="#FF5300"/>
<path d="M12.32 13.17V10.23H9.89V9.58H13.35V8.64H5.3V9.58H8.71V10.23H6.32V13.17H12.32ZM12.51 8.07V7.15H11.3L11.56 5.99C11.18 5.95 10.8 5.9 10.42 5.85L10.2 7.15H8.41C8.36 6.72 8.28 6.29 8.22 5.84C7.85 5.89 7.47 5.95 7.1 5.99C7.16 6.39 7.25 6.76 7.32 7.15H6.09V8.07H12.51ZM12.54 5.56V4.64H6.07V5.56H12.54ZM11.17 12.26H7.48V11.13H11.17V12.26ZM21.5923 13.22V12.29H16.5223V11.71H21.3223V9.34H15.3323V10.27H20.1523V10.86H15.3423V13.22H21.5923ZM14.2523 5.8H16.0123C15.9023 6.99 15.1023 7.8 13.8923 8.23L14.5823 9.13C15.4523 8.83 16.3923 8.03 16.6623 7.17C17.0323 7.93 17.9123 8.65 18.5923 8.88L19.2223 7.98C18.2723 7.69 17.4023 6.97 17.2623 5.8H18.9423V4.84H14.2523V5.8ZM21.3223 8.89V4.38H20.1523V6.23H18.8223V7.18H20.1523V8.89H21.3223ZM28.8047 4.38V9.4H29.9647V4.38H28.8047ZM29.9647 13.18V9.87H24.1047V13.18H29.9647ZM28.8047 12.27H25.2747V10.77H28.8047V12.27ZM22.9247 7.01C22.9247 8.27 23.9647 9.08 25.2747 9.08C26.6147 9.08 27.6347 8.27 27.6347 7.01C27.6347 5.76 26.5947 4.86 25.2747 4.86C23.9547 4.86 22.9247 5.78 22.9247 7.01ZM24.0447 7C24.0447 6.36 24.5247 5.83 25.2747 5.83C26.0447 5.83 26.5147 6.34 26.5147 7C26.5147 7.68 25.9847 8.18 25.2747 8.18C24.5347 8.18 24.0447 7.69 24.0447 7ZM39.487 7.5V6.55H38.227V4.38H37.037V9.58H38.227V7.5H39.487ZM32.377 10.02V10.95H37.047V13.3H38.227V10.02H32.377ZM35.697 9.07V4.91H34.517V6.17H32.637V4.92H31.477V9.07H35.697ZM34.517 8.15H32.637V7.08H34.517V8.15Z" fill="white"/>
</svg>
