<svg width="47" height="16" viewBox="0 0 47 16" fill="none" xmlns="http://www.w3.org/2000/svg">
<path d="M0 0H47V10C47 13.3137 44.3137 16 41 16H0V0Z" fill="#FFF1F1"/>
<path d="M7.76156 5.99H6.53156V6.82H13.1216V5.99H11.9016V4.33H13.1716V3.5H6.48156V4.33H7.76156V5.99ZM10.8716 5.99H8.79156V4.33H10.8716V5.99ZM13.9216 8.37V7.54H5.75156V8.37H9.32156V9.29H6.73156V12.16H12.9316V9.29H10.3516V8.37H13.9216ZM11.9216 11.34H7.75156V10.11H11.9216V11.34ZM19.7108 5.18V6.02H21.3008V7.87H22.3408V3.24H21.3008V5.18H19.7108ZM20.1908 7.02C18.8708 6.59 18.0808 5.6 18.0808 4.58V4.48H19.9708V3.65H15.1408V4.48H17.0408V4.57C17.0408 5.63 16.2208 6.77 14.8408 7.22L15.3408 8.02C16.4208 7.67 17.1708 6.96 17.5708 6.04C17.9608 6.85 18.7008 7.5 19.7108 7.82L20.1908 7.02ZM17.4908 11.37V10.57H22.3408V8.28H16.4608V9.09H21.3208V9.81H16.4708V12.18H22.6408V11.37H17.4908ZM30.37 3.25V8.39H31.4V3.25H30.37ZM26.53 3.69C25.14 3.69 24.13 4.56 24.13 5.82C24.13 7.08 25.14 7.95 26.53 7.95C27.91 7.95 28.92 7.08 28.92 5.82C28.92 4.56 27.91 3.69 26.53 3.69ZM26.53 4.54C27.33 4.54 27.92 5.05 27.92 5.82C27.92 6.6 27.33 7.1 26.53 7.1C25.72 7.1 25.14 6.62 25.14 5.82C25.14 5.05 25.72 4.54 26.53 4.54ZM25.49 8.84V12.16H31.4V8.84H25.49ZM30.39 9.66V11.34H26.5V9.66H30.39ZM41.3892 5.52H40.1092V3.23H39.0792V8.67H40.1092V6.37H41.3892V5.52ZM37.6292 3.8H36.6092V5.12H34.3992V3.8H33.3692V8.13H37.6292V3.8ZM36.6092 7.31H34.3992V5.92H36.6092V7.31ZM34.1692 9.94H39.0792V12.27H40.1092V9.12H34.1692V9.94Z" fill="#EF3434"/>
<rect x="23" width="0.001" height="16" fill="#C4C4C4"/>
</svg>
