<svg width="67" height="16" viewBox="0 0 67 16" fill="none" xmlns="http://www.w3.org/2000/svg">
<path d="M0 0H67V10C67 13.3137 64.3137 16 61 16H0V0Z" fill="#FFF1F1"/>
<path d="M6.16313 11.5H10.6131V10.58H7.20313V4.5H6.16313V11.5ZM13.6761 11.58C15.1861 11.58 16.2661 10.49 16.2661 8.98C16.2661 7.47 15.1861 6.38 13.6761 6.38C12.1661 6.38 11.0761 7.47 11.0761 8.98C11.0761 10.49 12.1661 11.58 13.6761 11.58ZM13.6761 10.73C12.7161 10.73 12.0661 10.01 12.0661 8.98C12.0661 7.95 12.7161 7.23 13.6761 7.23C14.6261 7.23 15.2761 7.95 15.2761 8.98C15.2761 10.01 14.6261 10.73 13.6761 10.73ZM18.1692 11.5H19.0692L20.2092 7.74L21.3592 11.5H22.2592L23.8192 6.46H22.8392L21.8092 10.21L20.6792 6.46H19.7592L18.6192 10.21L17.5792 6.46H16.6092L18.1692 11.5ZM26.8432 4.35V5.57H27.9232V4.35H26.8432ZM26.9032 11.5H27.8732V6.46H26.9032V11.5ZM29.1005 11.5H30.0705V8.77C30.0705 7.89 30.6305 7.25 31.4205 7.25C32.1305 7.25 32.6005 7.79 32.6005 8.59V11.5H33.5705V8.4C33.5705 7.2 32.8305 6.38 31.6905 6.38C30.9405 6.38 30.3405 6.72 30.0705 7.35V6.46H29.1005V11.5ZM38.888 11.58C40.028 11.58 40.778 10.99 40.778 10.07C40.778 7.77 37.898 9.05 37.898 7.8C37.898 7.41 38.248 7.15 38.768 7.15C39.198 7.15 39.758 7.38 39.828 7.96H40.738C40.688 7.01 39.908 6.38 38.768 6.38C37.718 6.38 36.978 6.96 36.978 7.83C36.978 9.98 39.838 8.75 39.838 10.09C39.838 10.46 39.468 10.77 38.888 10.77C38.238 10.77 37.818 10.44 37.758 9.86H36.848C36.918 10.92 37.708 11.58 38.888 11.58ZM42.2977 4.88V6.46H41.2677V7.3H42.2977V9.85C42.2977 10.88 42.9477 11.5 43.9677 11.5H44.7577V10.66H44.0477C43.5577 10.66 43.2677 10.36 43.2677 9.82V7.3H44.7577V6.46H43.2677V4.88H42.2977ZM47.7777 11.58C49.2877 11.58 50.3677 10.49 50.3677 8.98C50.3677 7.47 49.2877 6.38 47.7777 6.38C46.2677 6.38 45.1777 7.47 45.1777 8.98C45.1777 10.49 46.2677 11.58 47.7777 11.58ZM47.7777 10.73C46.8177 10.73 46.1677 10.01 46.1677 8.98C46.1677 7.95 46.8177 7.23 47.7777 7.23C48.7277 7.23 49.3777 7.95 49.3777 8.98C49.3777 10.01 48.7277 10.73 47.7777 10.73ZM53.5273 11.58C54.8073 11.58 55.7073 10.86 55.8673 9.8H54.9073C54.7473 10.37 54.2373 10.73 53.5473 10.73C52.5473 10.73 52.0373 9.95 52.0373 8.98C52.0373 8.01 52.5373 7.23 53.5473 7.23C54.2273 7.23 54.8073 7.65 54.8973 8.22H55.8673C55.7273 7.08 54.7073 6.38 53.5273 6.38C51.9373 6.38 51.0273 7.59 51.0273 8.98C51.0273 10.37 51.9373 11.58 53.5273 11.58ZM60.256 11.5H61.456L59.146 8.43L61.266 6.46H60.006L57.816 8.47V4.35H56.836V11.5H57.816V9.67L58.446 9.09L60.256 11.5Z" fill="#EF3434"/>
<rect x="33" width="0.001" height="16" fill="#C4C4C4"/>
</svg>
