<svg width="56" height="24" viewBox="0 0 56 24" fill="none" xmlns="http://www.w3.org/2000/svg">
<rect width="56" height="24" fill="#FA5500"/>
<path d="M12.4037 12.892V14.443H13.8667V12.892H12.4037ZM8.53172 12.056V13.211H17.7387V12.056H8.53172ZM9.33472 7.568V8.734H16.9247V7.568H9.33472ZM9.41172 10.263V11.429H16.8477V10.263H9.41172ZM10.6327 7.997V11.022H12.0957V7.997H10.6327ZM14.1637 7.997V11.022H15.6267V7.997H14.1637ZM9.59872 14.058V17.369H16.6387V14.058H9.59872ZM15.2087 15.191V16.214H11.0397V15.191H15.2087ZM23.9419 9.372V10.527H26.4609V9.372H23.9419ZM20.7409 8.151V8.712C20.7409 9.801 19.9819 11.033 18.3429 11.561L19.0359 12.694C20.9829 12.122 21.9289 10.428 21.9289 8.712V8.151H20.7409ZM21.0379 8.151V8.712C21.0379 10.406 21.9289 11.935 23.8319 12.485L24.5029 11.341C22.9189 10.879 22.2259 9.779 22.2259 8.712V8.151H21.0379ZM18.7279 7.667V8.833H24.2059V7.667H18.7279ZM25.4929 7.293V12.463H26.9559V7.293H25.4929ZM20.2239 12.87V14.003H25.5039V14.575H20.2349V16.907H21.6869V15.631H26.9559V12.87H20.2239ZM20.2349 16.247V17.38H27.2419V16.247H20.2349ZM35.326 7.304V13.057H36.8V7.304H35.326ZM30.024 13.519V17.369H36.8V13.519H30.024ZM35.359 14.663V16.214H31.454V14.663H35.359ZM31.256 7.766C29.672 7.766 28.484 8.778 28.484 10.208C28.484 11.627 29.672 12.65 31.256 12.65C32.84 12.65 34.017 11.627 34.017 10.208C34.017 8.778 32.84 7.766 31.256 7.766ZM31.256 8.976C32.026 8.976 32.587 9.427 32.587 10.208C32.587 10.978 32.026 11.429 31.256 11.429C30.486 11.429 29.914 10.978 29.914 10.208C29.914 9.427 30.486 8.976 31.256 8.976ZM44.7851 7.293V13.398H46.2481V7.293H44.7851ZM45.8411 9.768V10.967H47.6011V9.768H45.8411ZM39.4501 13.849V15.015H44.7851V17.479H46.2481V13.849H39.4501ZM38.5261 7.931V12.881H43.4211V7.931H41.9691V9.273H39.9781V7.931H38.5261ZM39.9781 10.395H41.9691V11.737H39.9781V10.395Z" fill="white"/>
</svg>
