<svg width="47" height="16" viewBox="0 0 47 16" fill="none" xmlns="http://www.w3.org/2000/svg">
<path d="M0 4C0 1.79086 1.79086 0 4 0H43C45.2091 0 47 1.79086 47 4V12C47 14.2091 45.2091 16 43 16H4C1.79086 16 0 14.2091 0 12V4Z" fill="#FFF1F1"/>
<path d="M9.46156 8.62V10.11H10.5016V8.62H9.46156ZM5.85156 8.04V8.88H14.1116V8.04H5.85156ZM6.60156 3.96V4.81H13.3516V3.96H6.60156ZM6.65156 6.48V7.32H13.3016V6.48H6.65156ZM7.88156 4.3V7.03H8.93156V4.3H7.88156ZM11.0216 4.3V7.03H12.0716V4.3H11.0216ZM6.84156 9.81V12.72H13.1116V9.81H6.84156ZM12.0916 10.63V11.88H7.87156V10.63H12.0916ZM19.7608 5.65V6.49H22.0708V5.65H19.7608ZM17.0608 4.46V5.03C17.0608 6.11 16.2308 7.24 14.8408 7.71L15.3408 8.52C16.9608 8.01 17.9108 6.56 17.9108 5.03V4.46H17.0608ZM17.2608 4.46V5.03C17.2608 6.51 18.1708 7.83 19.7608 8.32L20.2508 7.5C18.8908 7.09 18.1208 6.06 18.1208 5.03V4.46H17.2608ZM15.1308 4.1V4.95H20.0308V4.1H15.1308ZM21.3808 3.69V8.37H22.4208V3.69H21.3808ZM16.4708 8.79V9.61H21.3908V10.34H16.4908V12.41H17.5208V11.11H22.4208V8.79H16.4708ZM16.4908 11.91V12.73H22.7308V11.91H16.4908ZM30.34 3.7V8.89H31.39V3.7H30.34ZM25.41 9.35V12.72H31.39V9.35H25.41ZM30.36 10.18V11.88H26.44V10.18H30.36ZM26.46 4.15C25.06 4.15 24.03 5.03 24.03 6.31C24.03 7.57 25.06 8.47 26.46 8.47C27.86 8.47 28.88 7.57 28.88 6.31C28.88 5.03 27.86 4.15 26.46 4.15ZM26.46 5.02C27.27 5.02 27.86 5.53 27.86 6.31C27.86 7.09 27.27 7.59 26.46 7.59C25.65 7.59 25.05 7.09 25.05 6.31C25.05 5.53 25.65 5.02 26.46 5.02ZM38.9392 3.69V9.19H39.9892V3.69H38.9392ZM39.6992 5.99V6.86H41.2792V5.99H39.6992ZM33.9792 9.64V10.48H38.9392V12.83H39.9892V9.64H33.9792ZM33.1792 4.26V8.64H37.4792V4.26H36.4492V5.59H34.2192V4.26H33.1792ZM34.2192 6.41H36.4492V7.81H34.2192V6.41Z" fill="#EF3434"/>
</svg>
