<svg width="61" height="16" viewBox="0 0 61 16" fill="none" xmlns="http://www.w3.org/2000/svg">
<path d="M0 8C0 3.58172 3.58172 0 8 0H53C57.4183 0 61 3.58172 61 8C61 12.4183 57.4183 16 53 16H8C3.58172 16 0 12.4183 0 8Z" fill="#FFF1F1"/>
<path d="M8.191 4.984C8.98787 4.34553 9.9789 3.99837 11 4C12.0625 4 13.039 4.368 13.809 4.984L14.5355 4.2575L15.2425 4.9645L14.516 5.691C15.0449 6.35307 15.376 7.15101 15.4714 7.99299C15.5668 8.83497 15.4225 9.68677 15.0551 10.4504C14.6878 11.214 14.1123 11.8583 13.3949 12.3093C12.6775 12.7603 11.8474 12.9995 11 12.9995C10.1526 12.9995 9.32249 12.7603 8.6051 12.3093C7.8877 11.8583 7.31222 11.214 6.94486 10.4504C6.57751 9.68677 6.43322 8.83497 6.5286 7.99299C6.62398 7.15101 6.95515 6.35307 7.484 5.691L6.7575 4.965L7.4645 4.258L8.191 4.9845V4.984ZM11 12C11.4596 12 11.9148 11.9095 12.3394 11.7336C12.764 11.5577 13.1499 11.2999 13.4749 10.9749C13.7999 10.6499 14.0577 10.264 14.2336 9.83939C14.4095 9.41475 14.5 8.95963 14.5 8.5C14.5 8.04037 14.4095 7.58525 14.2336 7.16061C14.0577 6.73597 13.7999 6.35013 13.4749 6.02513C13.1499 5.70012 12.764 5.44231 12.3394 5.26642C11.9148 5.09053 11.4596 5 11 5C10.0717 5 9.18151 5.36875 8.52513 6.02513C7.86875 6.6815 7.5 7.57174 7.5 8.5C7.5 9.42826 7.86875 10.3185 8.52513 10.9749C9.18151 11.6313 10.0717 12 11 12ZM11.5 8H13L10.5 11.25V9H9L11.5 5.7475V8ZM9 2.5H13V3.5H9V2.5Z" fill="#EF3434"/>
<path d="M21.7616 6.49H20.5316V7.32H27.1216V6.49H25.9016V4.83H27.1716V4H20.4816V4.83H21.7616V6.49ZM24.8716 6.49H22.7916V4.83H24.8716V6.49ZM27.9216 8.87V8.04H19.7516V8.87H23.3216V9.79H20.7316V12.66H26.9316V9.79H24.3516V8.87H27.9216ZM25.9216 11.84H21.7516V10.61H25.9216V11.84ZM33.7108 5.68V6.52H35.3008V8.37H36.3408V3.74H35.3008V5.68H33.7108ZM34.1908 7.52C32.8708 7.09 32.0808 6.1 32.0808 5.08V4.98H33.9708V4.15H29.1408V4.98H31.0408V5.07C31.0408 6.13 30.2208 7.27 28.8408 7.72L29.3408 8.52C30.4208 8.17 31.1708 7.46 31.5708 6.54C31.9608 7.35 32.7008 8 33.7108 8.32L34.1908 7.52ZM31.4908 11.87V11.07H36.3408V8.78H30.4608V9.59H35.3208V10.31H30.4708V12.68H36.6408V11.87H31.4908ZM44.37 3.75V8.89H45.4V3.75H44.37ZM40.53 4.19C39.14 4.19 38.13 5.06 38.13 6.32C38.13 7.58 39.14 8.45 40.53 8.45C41.91 8.45 42.92 7.58 42.92 6.32C42.92 5.06 41.91 4.19 40.53 4.19ZM40.53 5.04C41.33 5.04 41.92 5.55 41.92 6.32C41.92 7.1 41.33 7.6 40.53 7.6C39.72 7.6 39.14 7.12 39.14 6.32C39.14 5.55 39.72 5.04 40.53 5.04ZM39.49 9.34V12.66H45.4V9.34H39.49ZM44.39 10.16V11.84H40.5V10.16H44.39ZM55.3892 6.02H54.1092V3.73H53.0792V9.17H54.1092V6.87H55.3892V6.02ZM51.6292 4.3H50.6092V5.62H48.3992V4.3H47.3692V8.63H51.6292V4.3ZM50.6092 7.81H48.3992V6.42H50.6092V7.81ZM48.1692 10.44H53.0792V12.77H54.1092V9.62H48.1692V10.44Z" fill="#EF3434"/>
<rect x="38" width="0.001" height="16" fill="#C4C4C4"/>
</svg>
