<svg width="18" height="18" viewBox="0 0 18 18" fill="none" xmlns="http://www.w3.org/2000/svg">
<path d="M13.4118 14.4727C12.0927 15.3093 10.5623 15.7524 9.00025 15.7499C4.95625 15.7499 1.59175 12.8399 0.886002 8.99993C1.20852 7.25297 2.08722 5.6571 3.391 4.45043L1.04425 2.10593L2.1055 1.04468L16.9548 15.8947L15.8935 16.9552L13.411 14.4727H13.4118ZM4.4515 5.51243C3.43226 6.43912 2.72224 7.65652 2.4175 8.99993C2.65172 10.0248 3.12195 10.9808 3.79075 11.7919C4.45956 12.603 5.30847 13.2467 6.26992 13.6719C7.23136 14.0971 8.27879 14.292 9.32882 14.241C10.3788 14.1901 11.4025 13.8947 12.3183 13.3784L10.7973 11.8574C10.1498 12.2653 9.3829 12.441 8.62243 12.3558C7.86196 12.2705 7.15303 11.9294 6.61193 11.3883C6.07083 10.8471 5.72967 10.1382 5.64442 9.37775C5.55917 8.61728 5.73489 7.85041 6.14275 7.20293L4.4515 5.51243ZM9.68575 10.7459L7.25425 8.31443C7.1208 8.65413 7.08939 9.02539 7.16388 9.38269C7.23837 9.73998 7.41551 10.0678 7.67359 10.3258C7.93167 10.5839 8.25945 10.7611 8.61674 10.8355C8.97404 10.91 9.3453 10.8786 9.685 10.7452L9.68575 10.7459ZM15.6055 12.4439L14.5323 11.3714C15.0336 10.6569 15.3905 9.85132 15.583 8.99993C15.3792 8.10722 14.9959 7.26529 14.4566 6.5253C13.9173 5.78531 13.2331 5.16272 12.4457 4.69538C11.6582 4.22804 10.784 3.9257 9.87605 3.80675C8.96813 3.6878 8.04551 3.75471 7.16425 4.00343L5.98075 2.81993C6.916 2.45243 7.93525 2.24993 9.00025 2.24993C13.0443 2.24993 16.4088 5.15993 17.1145 8.99993C16.8847 10.2492 16.3681 11.4281 15.6055 12.4439ZM8.7925 5.63093C9.26988 5.60143 9.74809 5.67373 10.1954 5.84304C10.6427 6.01235 11.049 6.27481 11.3872 6.61302C11.7254 6.95122 11.9878 7.35745 12.1571 7.80477C12.3265 8.25209 12.3988 8.7303 12.3693 9.20768L8.79175 5.63093H8.7925Z" fill="white"/>
</svg>
