<svg width="18" height="18" viewBox="0 0 18 18" fill="none" xmlns="http://www.w3.org/2000/svg">
<path d="M9.00024 2.25C13.0442 2.25 16.4087 5.16 17.1145 9C16.4095 12.84 13.0442 15.75 9.00024 15.75C4.95624 15.75 1.59174 12.84 0.885986 9C1.59099 5.16 4.95624 2.25 9.00024 2.25ZM9.00024 14.25C10.5298 14.2497 12.014 13.7301 13.2099 12.7764C14.4057 11.8226 15.2424 10.4912 15.583 9C15.2412 7.50998 14.4039 6.18 13.2082 5.22752C12.0125 4.27504 10.529 3.7564 9.00024 3.7564C7.47151 3.7564 5.988 4.27504 4.79227 5.22752C3.59653 6.18 2.75931 7.50998 2.41749 9C2.75806 10.4912 3.59474 11.8226 4.79059 12.7764C5.98645 13.7301 7.47063 14.2497 9.00024 14.25ZM9.00024 12.375C8.10513 12.375 7.24669 12.0194 6.61375 11.3865C5.98082 10.7535 5.62524 9.89511 5.62524 9C5.62524 8.10489 5.98082 7.24645 6.61375 6.61351C7.24669 5.98058 8.10513 5.625 9.00024 5.625C9.89534 5.625 10.7538 5.98058 11.3867 6.61351C12.0197 7.24645 12.3752 8.10489 12.3752 9C12.3752 9.89511 12.0197 10.7535 11.3867 11.3865C10.7538 12.0194 9.89534 12.375 9.00024 12.375ZM9.00024 10.875C9.49752 10.875 9.97443 10.6775 10.3261 10.3258C10.6777 9.97419 10.8752 9.49728 10.8752 9C10.8752 8.50272 10.6777 8.02581 10.3261 7.67417C9.97443 7.32254 9.49752 7.125 9.00024 7.125C8.50296 7.125 8.02604 7.32254 7.67441 7.67417C7.32278 8.02581 7.12524 8.50272 7.12524 9C7.12524 9.49728 7.32278 9.97419 7.67441 10.3258C8.02604 10.6775 8.50296 10.875 9.00024 10.875Z" fill="white"/>
</svg>
