<svg width="36" height="36" viewBox="0 0 36 36" fill="none" xmlns="http://www.w3.org/2000/svg">
<path d="M0 18C0 8.05887 8.05887 0 18 0V0C27.9411 0 36 8.05887 36 18V18C36 27.9411 27.9411 36 18 36V36C8.05887 36 0 27.9411 0 18V18Z" fill="black" fill-opacity="0.4"/>
<path d="M18.8336 21.4767L23.3036 17.0067L24.4819 18.185L18.0002 24.6667L11.5186 18.185L12.6969 17.0067L17.1669 21.4767V11.3334H18.8336V21.4767Z" fill="white"/>
<path d="M18 35C8.61116 35 1 27.3888 1 18H-1C-1 28.4934 7.50659 37 18 37V35ZM35 18C35 27.3888 27.3888 35 18 35V37C28.4934 37 37 28.4934 37 18H35ZM18 1C27.3888 1 35 8.61116 35 18H37C37 7.50659 28.4934 -1 18 -1V1ZM18 -1C7.50659 -1 -1 7.50659 -1 18H1C1 8.61116 8.61116 1 18 1V-1Z" fill="white" fill-opacity="0.4"/>
</svg>
