<svg width="36" height="36" viewBox="0 0 36 36" fill="none" xmlns="http://www.w3.org/2000/svg">
<path d="M0 18C0 8.05887 8.05887 0 18 0V0C27.9411 0 36 8.05887 36 18V18C36 27.9411 27.9411 36 18 36V36C8.05887 36 0 27.9411 0 18V18Z" fill="black" fill-opacity="0.4"/>
<path d="M13.3795 23.8333L9.66699 26.75V11.3333C9.66699 11.1123 9.75479 10.9004 9.91107 10.7441C10.0674 10.5878 10.2793 10.5 10.5003 10.5H25.5003C25.7213 10.5 25.9333 10.5878 26.0896 10.7441C26.2459 10.9004 26.3337 11.1123 26.3337 11.3333V23C26.3337 23.221 26.2459 23.433 26.0896 23.5893C25.9333 23.7455 25.7213 23.8333 25.5003 23.8333H13.3795ZM12.8028 22.1667H24.667V12.1667H11.3337V23.3208L12.8028 22.1667ZM17.167 16.3333H18.8337V18H17.167V16.3333ZM13.8337 16.3333H15.5003V18H13.8337V16.3333ZM20.5003 16.3333H22.167V18H20.5003V16.3333Z" fill="white"/>
</svg>
