<svg width="20" height="20" viewBox="0 0 20 20" fill="none" xmlns="http://www.w3.org/2000/svg">
<path fill-rule="evenodd" clip-rule="evenodd" d="M9.99935 8.31368L5.85446 4.17893L2.09155 7.93263L9.99951 15.8212L17.9084 7.93247L14.1455 4.17877L9.99935 8.31368ZM19.7438 8.55145C20.0854 8.21075 20.0854 7.65447 19.7438 7.31372L14.7531 2.33517C14.4165 1.99947 13.8747 1.99944 13.5381 2.33509L9.99951 5.86412L6.46198 2.33524C6.12543 1.99952 5.58348 1.99952 5.24694 2.33524L0.256166 7.3138C-0.0853881 7.65452 -0.0853888 8.21074 0.256165 8.55145L9.39199 17.6649C9.72853 18.0006 10.2705 18.0006 10.607 17.6649L19.7438 8.55145Z" fill="white"/>
</svg>
