<svg width="19" height="16" viewBox="0 0 19 16" fill="none" xmlns="http://www.w3.org/2000/svg">
<path d="M14.0916 0C14.1107 0 14.0724 0 14.0916 0C12.8177 0 11.5698 0.514125 10.6819 1.42538C10.4099 1.71225 10.1606 2.01938 9.93494 2.3445C9.6664 1.95525 9.36177 1.59188 9.02554 1.25775C8.17593 0.41175 6.9822 0 5.77155 0H5.71514C4.66131 0 3.60636 0.306 2.79174 0.973125C0.363658 2.961 0.374941 6.26963 2.30657 8.22038L9.1158 15.3968C9.32905 15.6206 9.62579 15.7478 9.93494 15.7478C10.2452 15.7478 10.542 15.6206 10.7552 15.3968L17.543 8.24175C18.4513 7.33613 18.9613 6.10875 18.9613 4.82738C18.9613 3.546 18.4513 2.31863 17.543 1.413C16.6336 0.507375 15.4026 0 14.1186 0H14.0916ZM14.1017 1.6875C14.9423 1.6875 15.7513 2.01375 16.3459 2.60663C16.9416 3.1995 17.2688 3.98813 17.2688 4.82738C17.2688 5.66663 16.9416 6.45525 16.3132 7.08188L9.93494 13.8049L3.51046 7.0335C2.8899 6.40688 2.55931 5.54288 2.60557 4.66313C2.65296 3.75075 3.10089 2.90363 3.86587 2.277C4.33072 1.89675 4.98739 1.6875 5.71514 1.6875H5.77155C6.59182 1.6875 7.34213 1.9665 7.83068 2.4525C8.09244 2.71238 8.33277 2.99925 8.54263 3.303C8.85855 3.75975 9.37869 4.032 9.93494 4.032C10.4923 4.032 11.0125 3.75975 11.3284 3.303C11.5044 3.04875 11.7007 2.80688 11.8948 2.60213C12.4612 2.0205 13.269 1.6875 14.1017 1.6875Z" fill="white"/>
</svg>
