<svg width="20" height="20" viewBox="0 0 20 20" fill="none" xmlns="http://www.w3.org/2000/svg">
<g clip-path="url(#clip0_2942_9969)">
<path d="M9.875 18.125L2.3125 11C2.0625 10.6875 1.875 10.4375 1.6875 10.1875C1.25 9.4375 1 8.5625 1 7.75C1 7 1.125 6.3125 1.4375 5.625C1.6875 5 2.0625 4.4375 2.5625 3.9375C3.0625 3.4375 3.625 3.0625 4.25 2.75C5.5625 2.1875 7.0625 2.1875 8.375 2.75C8.9375 3 9.4375 3.375 9.9375 3.8125C10.375 3.375 10.9375 3 11.5 2.75C12.8125 2.1875 14.3125 2.1875 15.625 2.75C16.25 3 16.8125 3.4375 17.3125 3.9375C17.6875 4.4375 18.0625 5 18.3125 5.625C18.5625 6.3125 18.75 7 18.75 7.75C18.75 8.625 18.5 9.4375 18.0625 10.1875C17.9375 10.4375 17.75 10.6875 17.5 11L17.4375 11.0625L9.875 18.125ZM3.5625 9.9375L9.9375 15.875L16.25 9.9375C16.4375 9.75 16.5625 9.5625 16.625 9.4375C16.9375 8.9375 17.0625 8.3125 17.0625 7.75C17.0625 7.25 16.9375 6.75 16.75 6.25C16.5625 5.8125 16.3125 5.375 16 5.0625C15.6875 4.6875 15.25 4.4375 14.875 4.25C14 3.875 13 3.875 12.0625 4.25C11.625 4.4375 11.25 4.6875 10.9375 5.0625C10.8125 5.1875 10.6875 5.375 10.5625 5.5625L9.875 6.5625L9.1875 5.5625C9.0625 5.375 8.9375 5.25 8.8125 5.0625C8.5 4.75 8.125 4.4375 7.6875 4.25C6.8125 3.875 5.8125 3.875 4.875 4.25C4.5 4.4375 4.0625 4.6875 3.75 5.0625C3.4375 5.375 3.1875 5.8125 3 6.25C2.8125 6.75 2.6875 7.25 2.6875 7.75C2.6875 8.3125 2.875 8.875 3.125 9.375C3.25 9.5625 3.375 9.75 3.5625 9.9375Z" fill="white"/>
</g>
<defs>
<clipPath id="clip0_2942_9969">
<rect width="18.125" height="16.25" fill="white" transform="translate(0.625 1.875)"/>
</clipPath>
</defs>
</svg>
