<svg width="36" height="36" viewBox="0 0 36 36" fill="none" xmlns="http://www.w3.org/2000/svg">
<path d="M0 18C0 8.05887 8.05887 0 18 0V0C27.9411 0 36 8.05887 36 18V18C36 27.9411 27.9411 36 18 36V36C8.05887 36 0 27.9411 0 18V18Z" fill="black" fill-opacity="0.4"/>
<path fill-rule="evenodd" clip-rule="evenodd" d="M17.9994 16.3137L13.8545 12.1789L10.0915 15.9326L17.9995 23.8212L25.9084 15.9325L22.1455 12.1788L17.9994 16.3137ZM27.7438 16.5515C28.0854 16.2107 28.0854 15.6545 27.7438 15.3137L22.7531 10.3352C22.4165 9.99947 21.8747 9.99944 21.5381 10.3351L17.9995 13.8641L14.462 10.3352C14.1254 9.99952 13.5835 9.99952 13.2469 10.3352L8.25617 15.3138C7.91461 15.6545 7.91461 16.2107 8.25616 16.5515L17.392 25.6649C17.7285 26.0006 18.2705 26.0006 18.607 25.6649L27.7438 16.5515Z" fill="white"/>
</svg>
