<svg width="48" height="24" viewBox="0 0 48 24" fill="none" xmlns="http://www.w3.org/2000/svg">
<path d="M35.0627 0H13.5861C6.56453 0.038076 0.884277 5.39468 0.884277 11.9991C0.884277 18.6036 6.56453 23.9619 13.5861 24H35.0627C42.1189 24 47.8389 18.6347 47.8389 11.9991C47.8389 5.36353 42.1189 0 35.0627 0ZM17.0822 17.2536H11.2098V6.74984H13.3074V15.2391H17.0873L17.0822 17.2536ZM20.3221 17.2536H18.2227V6.74984H20.3221V17.2536ZM26.8608 17.2536H24.796L24.777 17.1948L21.2705 6.74984H23.4495L25.8344 13.9462L28.2073 6.74984H30.3863L26.8608 17.2536ZM37.2901 8.75921H33.0845V10.9642H37.2901V12.9805H33.0845V15.2391H37.2901V17.2536H30.9868V6.74984H37.2901V8.75921Z" fill="white"/>
</svg>
