
<svg width="41" height="20" viewBox="0 0 41 20" fill="none" xmlns="http://www.w3.org/2000/svg">
<g filter="url(#filter0_ii)">
<path d="M0 10C0 4.47715 4.47715 0 10 0H31C36.5228 0 41 4.47715 41 10C41 15.5228 36.5228 20 31 20H10C4.47715 20 0 15.5228 0 10Z" fill="#EF3434"/>
<path d="M9.08134 14H14.6013V12.62H10.6773V5.6H9.08134V14ZM15.5501 14H17.1461V5.6H15.5501V14ZM21.0773 14H22.6253L25.6853 5.6H24.1013L21.8453 12.044L19.6133 5.6H18.0173L21.0773 14ZM26.5657 14H32.2897V12.62H28.1497V10.376H31.3657V9.008H28.1497V6.968H32.1577V5.6H26.5657V14Z" fill="white"/>
<rect x="20" width="0.001" height="20" fill="#C4C4C4"/>
</g>
<defs>
<filter id="filter0_ii" x="0" y="-1" width="41" height="22" filterUnits="userSpaceOnUse" color-interpolation-filters="sRGB">
<feFlood flood-opacity="0" result="BackgroundImageFix"/>
<feBlend mode="normal" in="SourceGraphic" in2="BackgroundImageFix" result="shape"/>
<feColorMatrix in="SourceAlpha" type="matrix" values="0 0 0 0 0 0 0 0 0 0 0 0 0 0 0 0 0 0 127 0" result="hardAlpha"/>
<feOffset dy="1"/>
<feGaussianBlur stdDeviation="0.5"/>
<feComposite in2="hardAlpha" operator="arithmetic" k2="-1" k3="1"/>
<feColorMatrix type="matrix" values="0 0 0 0 1 0 0 0 0 1 0 0 0 0 1 0 0 0 0.25 0"/>
<feBlend mode="normal" in2="shape" result="effect1_innerShadow"/>
<feColorMatrix in="SourceAlpha" type="matrix" values="0 0 0 0 0 0 0 0 0 0 0 0 0 0 0 0 0 0 127 0" result="hardAlpha"/>
<feOffset dy="-1"/>
<feGaussianBlur stdDeviation="0.5"/>
<feComposite in2="hardAlpha" operator="arithmetic" k2="-1" k3="1"/>
<feColorMatrix type="matrix" values="0 0 0 0 0 0 0 0 0 0 0 0 0 0 0 0 0 0 0.25 0"/>
<feBlend mode="normal" in2="effect1_innerShadow" result="effect2_innerShadow"/>
</filter>
</defs>
</svg>
