<svg width="95" height="20" viewBox="0 0 95 20" fill="none" xmlns="http://www.w3.org/2000/svg">
<path d="M0 10C0 4.47715 4.47715 0 10 0H85C90.5228 0 95 4.47715 95 10V10C95 15.5228 90.5228 20 85 20H10C4.47715 20 0 15.5228 0 10V10Z" fill="#E4EBFF"/>
<path d="M8.66 13.5H13.14V12.18H10.22V6.05H8.66V13.5ZM21.3933 9.78C21.3933 7.56 19.7833 5.93 17.5133 5.93C15.2433 5.93 13.6333 7.56 13.6333 9.78C13.6333 12 15.2433 13.63 17.5133 13.63C19.7833 13.63 21.3933 12 21.3933 9.78ZM19.7433 9.78C19.7433 11.25 18.8633 12.28 17.5133 12.28C16.1633 12.28 15.2833 11.25 15.2833 9.78C15.2833 8.31 16.1633 7.28 17.5133 7.28C18.8633 7.28 19.7433 8.31 19.7433 9.78ZM23.7688 13.5H25.6188L26.9388 7.81L28.2488 13.5H30.0988L31.5488 6.05H29.9488L29.0688 11.38L27.8588 6.05H26.0188L24.9288 11.34L23.9388 6.05H22.3288L23.7688 13.5ZM35.9334 13.5H37.4934V6.05H35.9334V13.5ZM45.5241 13.5V6.05H44.0541V11.09L40.7741 6.05H39.3241V13.5H40.7941V8.46L44.0741 13.5H45.5241ZM52.9166 13.63C54.4566 13.63 55.7266 12.83 55.7266 11.34C55.7266 10.07 54.8166 9.38 53.2966 9.07L52.5966 8.93C51.9166 8.8 51.4966 8.56 51.4966 8.03C51.4966 7.63 51.8566 7.22 52.6966 7.22C53.2466 7.22 53.8966 7.48 53.9966 8.29H55.5366C55.4166 6.87 54.1466 5.93 52.7566 5.93C51.2366 5.93 49.9966 6.73 49.9966 8.1C49.9966 9.34 50.9166 10.04 52.3066 10.32L52.9966 10.46C53.7666 10.62 54.2266 10.93 54.2266 11.45C54.2266 12.01 53.7366 12.35 52.9866 12.35C52.2466 12.35 51.6166 12.12 51.4566 11.12H49.9166C50.1066 12.73 51.2866 13.63 52.9166 13.63ZM58.4769 13.5H60.0369V7.37H62.1269V6.05H56.3969V7.37H58.4769V13.5ZM70.3347 9.78C70.3347 7.56 68.7247 5.93 66.4547 5.93C64.1847 5.93 62.5747 7.56 62.5747 9.78C62.5747 12 64.1847 13.63 66.4547 13.63C68.7247 13.63 70.3347 12 70.3347 9.78ZM68.6847 9.78C68.6847 11.25 67.8047 12.28 66.4547 12.28C65.1047 12.28 64.2247 11.25 64.2247 9.78C64.2247 8.31 65.1047 7.28 66.4547 7.28C67.8047 7.28 68.6847 8.31 68.6847 9.78ZM75.352 13.63C77.222 13.63 78.592 12.53 79.002 10.83H77.352C77.062 11.82 76.382 12.28 75.372 12.28C74.012 12.28 73.172 11.22 73.172 9.78C73.172 8.34 74.012 7.28 75.372 7.28C76.392 7.28 77.062 7.74 77.352 8.73H79.002C78.602 7.02 77.222 5.93 75.352 5.93C73.102 5.93 71.522 7.59 71.522 9.78C71.522 11.96 73.102 13.63 75.352 13.63ZM84.8093 13.5H86.8393L83.3793 9.77L86.4093 6.05H84.6293L81.9993 9.34V6.05H80.4393V13.5H81.9993V10.53L84.8093 13.5Z" fill="#3665F3"/>
</svg>
