<svg width="16" height="16" viewBox="0 0 16 16" fill="none" xmlns="http://www.w3.org/2000/svg">
<path d="M7.99997 2.00001C7.46954 2.00001 6.96083 2.21072 6.58576 2.58579C6.21068 2.96086 5.99997 3.46957 5.99997 4V8C5.99997 8.53044 6.21068 9.03915 6.58576 9.41422C6.96083 9.78929 7.46954 10 7.99997 10C8.5304 10 9.03911 9.78929 9.41418 9.41422C9.78926 9.03915 9.99997 8.53044 9.99997 8V4C9.99997 3.46957 9.78926 2.96086 9.41418 2.58579C9.03911 2.21072 8.5304 2.00001 7.99997 2.00001ZM7.99997 0.666672C8.43771 0.666672 8.87116 0.752891 9.27558 0.920407C9.68 1.08792 10.0475 1.33345 10.357 1.64298C10.6665 1.95251 10.9121 2.31997 11.0796 2.72439C11.2471 3.12881 11.3333 3.56227 11.3333 4V8C11.3333 8.88406 10.9821 9.73191 10.357 10.357C9.73187 10.9821 8.88403 11.3333 7.99997 11.3333C7.11592 11.3333 6.26807 10.9821 5.64295 10.357C5.01783 9.73191 4.66664 8.88406 4.66664 8V4C4.66664 3.11595 5.01783 2.2681 5.64295 1.64298C6.26807 1.01786 7.11592 0.666672 7.99997 0.666672ZM1.4613 9.308L2.7693 9.046C3.01223 10.2543 3.66599 11.3412 4.61951 12.1221C5.57303 12.903 6.7675 13.3297 7.99997 13.3297C9.23245 13.3297 10.4269 12.903 11.3804 12.1221C12.334 11.3412 12.9877 10.2543 13.2306 9.046L14.5386 9.308C13.9306 12.3633 11.2333 14.6667 7.99997 14.6667C4.76664 14.6667 2.0693 12.3633 1.4613 9.308Z" fill="white"/>
</svg>
