<svg width="35" height="16" viewBox="0 0 35 16" fill="none" xmlns="http://www.w3.org/2000/svg">
<path d="M0 8C0 3.58172 3.58172 0 8 0H27C31.4183 0 35 3.58172 35 8V8C35 12.4183 31.4183 16 27 16H8C3.58172 16 0 12.4183 0 8V8Z" fill="#EF3434"/>
<path d="M5.86043 11.5H7.18043V6.57L10.2204 11.5H11.6404V4.5H10.3204V9.44L7.29043 4.5H5.86043V11.5ZM16.2096 11.58C18.2396 11.58 19.7396 10.06 19.7396 8C19.7396 5.94 18.2396 4.42 16.2096 4.42C14.1696 4.42 12.6696 5.94 12.6696 8C12.6696 10.06 14.1696 11.58 16.2096 11.58ZM16.1996 10.43C14.9296 10.43 13.9996 9.4 13.9996 8C13.9996 6.6 14.9296 5.56 16.1996 5.56C17.4796 5.56 18.4096 6.6 18.4096 8C18.4096 9.4 17.4796 10.43 16.1996 10.43ZM21.9724 11.5H23.2624L24.7524 6.55L26.2424 11.5H27.5424L29.6324 4.5H28.3024L26.8424 9.55L25.3124 4.5H24.1824L22.6624 9.55L21.2124 4.5H19.8724L21.9724 11.5Z" fill="white"/>
<rect x="17" width="0.001" height="16" fill="#C4C4C4"/>
</svg>
