<svg width="40" height="20" viewBox="0 0 40 20" fill="none" xmlns="http://www.w3.org/2000/svg">
<rect width="40" height="20" rx="10" fill="#FF0000"/>
<path d="M13.7267 5.8H11.9997V11.531L9.43673 5.8H6.88473V13.5H8.61173V7.78L11.1637 13.5H13.7267V5.8ZM18.7908 5.69C16.3708 5.69 14.7978 7.384 14.7978 9.65C14.7978 11.916 16.3708 13.61 18.7908 13.61C21.2108 13.61 22.7838 11.916 22.7838 9.65C22.7838 7.384 21.2108 5.69 18.7908 5.69ZM18.7908 7.263C20.2098 7.263 20.9688 8.462 20.9688 9.65C20.9688 10.838 20.2098 12.037 18.7908 12.037C17.3718 12.037 16.6128 10.838 16.6128 9.65C16.6128 8.462 17.3718 7.263 18.7908 7.263ZM24.7924 5.8H22.9774L24.8034 13.5H27.1464L28.3784 7.604L29.6104 13.5H31.9534L33.7794 5.8H31.9644L30.7874 11.696L29.5994 5.8H27.1574L25.9694 11.696L24.7924 5.8Z" fill="white"/>
</svg>
