<svg width="45" height="24" viewBox="0 0 45 24" fill="none" xmlns="http://www.w3.org/2000/svg">
<rect width="45" height="24" fill="black"/>
<path d="M16.079 16V7.996H14.675V13.552L10.583 7.996H9.14302V16H10.547V10.288L14.723 16H16.079ZM21.5117 16.144C23.9117 16.144 25.6037 14.392 25.6037 12.004C25.6037 9.616 23.9117 7.864 21.5117 7.864C19.1117 7.864 17.4197 9.616 17.4197 12.004C17.4197 14.392 19.1117 16.144 21.5117 16.144ZM21.5117 14.896C19.8917 14.896 18.8597 13.648 18.8597 12.004C18.8597 10.348 19.8917 9.112 21.5117 9.112C23.1197 9.112 24.1637 10.348 24.1637 12.004C24.1637 13.648 23.1197 14.896 21.5117 14.896ZM34.3411 16L36.6211 7.996H35.0491L33.5011 14.164L31.8451 7.996H30.7291L29.0731 14.164L27.5131 7.996H25.9411L28.2331 16H29.7331L31.2811 10.096L32.8411 16H34.3411Z" fill="white"/>
</svg>
