<svg width="48" height="48" viewBox="0 0 48 48" fill="none" xmlns="http://www.w3.org/2000/svg">
<rect width="48" height="48" fill="#F6F6F6"/>
<path d="M29.3333 19.3333H18.6666V28.6667L24.8613 22.4707C24.9863 22.3457 25.1558 22.2755 25.3326 22.2755C25.5094 22.2755 25.6789 22.3457 25.8039 22.4707L29.3333 26.0067V19.3333ZM17.3333 18.662C17.3345 18.4869 17.4045 18.3193 17.5283 18.1955C17.652 18.0716 17.8195 18.0014 17.9946 18H30.0053C30.3706 18 30.6666 18.2967 30.6666 18.662V29.338C30.6654 29.5131 30.5953 29.6807 30.4716 29.8045C30.3478 29.9284 30.1803 29.9986 30.0053 30H17.9946C17.8191 29.9998 17.6509 29.93 17.5269 29.8059C17.4029 29.6817 17.3333 29.5135 17.3333 29.338V18.662ZM21.3333 23.3333C20.9796 23.3333 20.6405 23.1929 20.3904 22.9428C20.1404 22.6928 19.9999 22.3536 19.9999 22C19.9999 21.6464 20.1404 21.3072 20.3904 21.0572C20.6405 20.8071 20.9796 20.6667 21.3333 20.6667C21.6869 20.6667 22.026 20.8071 22.2761 21.0572C22.5261 21.3072 22.6666 21.6464 22.6666 22C22.6666 22.3536 22.5261 22.6928 22.2761 22.9428C22.026 23.1929 21.6869 23.3333 21.3333 23.3333Z" fill="#CBCBCB"/>
</svg>
