<svg width="60" height="60" viewBox="0 0 60 60" fill="none" xmlns="http://www.w3.org/2000/svg">
<path fill-rule="evenodd" clip-rule="evenodd" d="M54.7426 14.2426C57.0858 11.8995 57.0858 8.10051 54.7426 5.75736C52.3995 3.41421 48.6005 3.41421 46.2574 5.75736L30.25 21.7647L14.2426 5.75736C11.8995 3.41421 8.10051 3.41421 5.75736 5.75736C3.41421 8.1005 3.41421 11.8995 5.75736 14.2426L21.7647 30.25L5.75736 46.2574C3.41421 48.6005 3.41421 52.3995 5.75736 54.7426C8.1005 57.0858 11.8995 57.0858 14.2426 54.7426L30.25 38.7353L46.2574 54.7426C48.6005 57.0858 52.3995 57.0858 54.7426 54.7426C57.0858 52.3995 57.0858 48.6005 54.7426 46.2574L38.7353 30.25L54.7426 14.2426Z" fill="#333333"/>
</svg>
