<svg width="28" height="28" viewBox="0 0 28 28" fill="none" xmlns="http://www.w3.org/2000/svg">
<path d="M0 14C0 6.26801 6.26801 0 14 0C21.732 0 28 6.26801 28 14C28 21.732 21.732 28 14 28C6.26801 28 0 21.732 0 14Z" fill="black" fill-opacity="0.4"/>
<path d="M18.9174 14.2773L11.8514 18.9879C11.8012 19.0213 11.7429 19.0405 11.6826 19.0434C11.6224 19.0463 11.5625 19.0328 11.5094 19.0043C11.4562 18.9758 11.4118 18.9335 11.3808 18.8818C11.3498 18.8301 11.3334 18.7709 11.3334 18.7106V9.28928C11.3334 9.22898 11.3498 9.16983 11.3808 9.11811C11.4118 9.06639 11.4562 9.02404 11.5094 8.99558C11.5625 8.96712 11.6224 8.95362 11.6826 8.9565C11.7429 8.95938 11.8012 8.97854 11.8514 9.01194L18.9174 13.7226C18.963 13.7531 19.0005 13.7943 19.0263 13.8427C19.0522 13.8911 19.0658 13.9451 19.0658 13.9999C19.0658 14.0548 19.0522 14.1088 19.0263 14.1572C19.0005 14.2056 18.963 14.2468 18.9174 14.2773Z" fill="white"/>
</svg>
