<svg width="16" height="16" viewBox="0 0 16 16" fill="none" xmlns="http://www.w3.org/2000/svg">
<path d="M7.29289 0.292893C7.68342 -0.0976311 8.31658 -0.0976311 8.70711 0.292893L10.7071 2.29289C11.0976 2.68342 11.0976 3.31658 10.7071 3.70711C10.3166 4.09763 9.68342 4.09763 9.29289 3.70711L9 3.41421V10C9 10.5523 8.55228 11 8 11C7.44772 11 7 10.5523 7 10V3.41421L6.70711 3.70711C6.31658 4.09763 5.68342 4.09763 5.29289 3.70711C4.90237 3.31658 4.90237 2.68342 5.29289 2.29289L7.29289 0.292893Z" fill="white"/>
<path d="M3 6C2.44772 6 2 6.44772 2 7V14C2 14.5523 2.44772 15 3 15H13C13.5523 15 14 14.5523 14 14V7C14 6.44772 13.5523 6 13 6H11C10.4477 6 10 6.44772 10 7C10 7.55228 10.4477 8 11 8H12V13H4V8H5C5.55228 8 6 7.55228 6 7C6 6.44772 5.55228 6 5 6H3Z" fill="white"/>
</svg>
