<svg width="24" height="24" viewBox="0 0 24 24" fill="none" xmlns="http://www.w3.org/2000/svg">
<path d="M13.1201 17.023L8.92108 14.733C8.37288 15.3191 7.66107 15.7267 6.87816 15.9029C6.09524 16.0791 5.27743 16.0157 4.531 15.7211C3.78458 15.4264 3.14404 14.914 2.69265 14.2505C2.24126 13.587 1.99988 12.803 1.99988 12.0005C1.99988 11.198 2.24126 10.4141 2.69265 9.75058C3.14404 9.08707 3.78458 8.57467 4.531 8.27998C5.27743 7.98529 6.09524 7.92193 6.87816 8.09813C7.66107 8.27434 8.37288 8.68196 8.92108 9.26802L13.1211 6.97802C12.8826 6.03409 12.9966 5.03561 13.4417 4.16972C13.8868 3.30384 14.6324 2.63 15.5388 2.27452C16.4451 1.91904 17.45 1.90633 18.3651 2.23875C19.2801 2.57118 20.0425 3.22594 20.5094 4.08028C20.9762 4.93463 21.1155 5.92991 20.901 6.87957C20.6865 7.82922 20.133 8.66806 19.3443 9.23883C18.5556 9.8096 17.5858 10.0731 16.6167 9.98001C15.6476 9.8869 14.7457 9.44353 14.0801 8.73302L9.88008 11.023C10.0413 11.6644 10.0413 12.3357 9.88008 12.977L14.0791 15.267C14.7447 14.5565 15.6466 14.1131 16.6157 14.02C17.5848 13.9269 18.5546 14.1904 19.3433 14.7612C20.132 15.332 20.6855 16.1708 20.9 17.1205C21.1145 18.0701 20.9752 19.0654 20.5084 19.9198C20.0415 20.7741 19.2791 21.4289 18.3641 21.7613C17.449 22.0937 16.4441 22.081 15.5378 21.7255C14.6314 21.37 13.8858 20.6962 13.4407 19.8303C12.9956 18.9644 12.8816 17.9659 13.1201 17.022V17.023ZM6.00008 14C6.53052 14 7.03922 13.7893 7.4143 13.4142C7.78937 13.0392 8.00008 12.5305 8.00008 12C8.00008 11.4696 7.78937 10.9609 7.4143 10.5858C7.03922 10.2107 6.53052 10 6.00008 10C5.46965 10 4.96094 10.2107 4.58587 10.5858C4.2108 10.9609 4.00008 11.4696 4.00008 12C4.00008 12.5305 4.2108 13.0392 4.58587 13.4142C4.96094 13.7893 5.46965 14 6.00008 14ZM17.0001 8.00002C17.5305 8.00002 18.0392 7.78931 18.4143 7.41423C18.7894 7.03916 19.0001 6.53045 19.0001 6.00002C19.0001 5.46959 18.7894 4.96088 18.4143 4.58581C18.0392 4.21073 17.5305 4.00002 17.0001 4.00002C16.4697 4.00002 15.9609 4.21073 15.5859 4.58581C15.2108 4.96088 15.0001 5.46959 15.0001 6.00002C15.0001 6.53045 15.2108 7.03916 15.5859 7.41423C15.9609 7.78931 16.4697 8.00002 17.0001 8.00002ZM17.0001 20C17.5305 20 18.0392 19.7893 18.4143 19.4142C18.7894 19.0392 19.0001 18.5305 19.0001 18C19.0001 17.4696 18.7894 16.9609 18.4143 16.5858C18.0392 16.2107 17.5305 16 17.0001 16C16.4697 16 15.9609 16.2107 15.5859 16.5858C15.2108 16.9609 15.0001 17.4696 15.0001 18C15.0001 18.5305 15.2108 19.0392 15.5859 19.4142C15.9609 19.7893 16.4697 20 17.0001 20Z" fill="white"/>
</svg>
