<svg width="40" height="9" viewBox="0 0 40 9" fill="none" xmlns="http://www.w3.org/2000/svg">
<path d="M3.00906 8.08C4.54906 8.08 5.61906 7.29 5.61906 5.99C5.61906 3.26 1.80906 4.42 1.80906 2.87C1.80906 2.38 2.23906 2.06 2.92906 2.06C3.66906 2.06 4.14906 2.47 4.20906 3.08H5.46906C5.40906 1.77 4.40906 0.92 2.92906 0.92C1.50906 0.92 0.519063 1.72 0.519063 2.87C0.519063 5.55 4.27906 4.51 4.27906 6.01C4.27906 6.63 3.75906 6.93 3.00906 6.93C2.16906 6.93 1.64906 6.43 1.57906 5.65H0.309063C0.379063 7.12 1.41906 8.08 3.00906 8.08ZM8.81844 8.08C10.3484 8.08 11.4484 6.98 11.4484 5.48C11.4484 3.98 10.3484 2.88 8.81844 2.88C7.27844 2.88 6.17844 3.98 6.17844 5.48C6.17844 6.98 7.27844 8.08 8.81844 8.08ZM8.81844 7.02C7.97844 7.02 7.41844 6.39 7.41844 5.48C7.41844 4.57 7.97844 3.94 8.81844 3.94C9.64844 3.94 10.2084 4.57 10.2084 5.48C10.2084 6.39 9.64844 7.02 8.81844 7.02ZM12.3485 8H13.5685V0.8H12.3485V8ZM16.8695 8.08C17.4795 8.08 18.0395 7.81 18.3295 7.37V8H19.5495V0.8H18.3295V3.57C18.0395 3.16 17.5095 2.88 16.8495 2.88C15.3595 2.88 14.4695 3.94 14.4695 5.48C14.4695 7.02 15.3595 8.08 16.8695 8.08ZM17.0495 7.02C16.2295 7.02 15.6895 6.41 15.6895 5.48C15.6895 4.55 16.2295 3.94 17.0495 3.94C17.8695 3.94 18.4095 4.55 18.4095 5.48C18.4095 6.41 17.8695 7.02 17.0495 7.02ZM26.2535 8.08C28.2835 8.08 29.7835 6.56 29.7835 4.5C29.7835 2.44 28.2835 0.92 26.2535 0.92C24.2135 0.92 22.7135 2.44 22.7135 4.5C22.7135 6.56 24.2135 8.08 26.2535 8.08ZM26.2435 6.93C24.9735 6.93 24.0435 5.9 24.0435 4.5C24.0435 3.1 24.9735 2.06 26.2435 2.06C27.5235 2.06 28.4535 3.1 28.4535 4.5C28.4535 5.9 27.5235 6.93 26.2435 6.93ZM35.3765 2.96H34.1465V5.71C34.1465 6.45 33.6665 6.99 32.9765 6.99C32.3565 6.99 31.9265 6.51 31.9265 5.82V2.96H30.7065V6.08C30.7065 7.26 31.4465 8.08 32.5765 8.08C33.2965 8.08 33.8665 7.77 34.1465 7.22V8H35.3765V2.96ZM37.0977 1.44V2.96H36.1077V3.99H37.0977V6.24C37.0977 7.36 37.8177 8 38.9177 8H39.7277V6.96H39.0577C38.5977 6.96 38.3277 6.7 38.3277 6.19V3.99H39.7277V2.96H38.3277V1.44H37.0977Z" fill="#AFAFAF"/>
</svg>
