<svg width="75" height="24" viewBox="0 0 75 24" fill="none" xmlns="http://www.w3.org/2000/svg">
<rect width="75" height="24" fill="#CBCBCB"/>
<path d="M11.6739 16.144C13.8339 16.144 14.7699 15.004 14.7699 13.672C14.7699 10.684 10.1139 11.608 10.1139 10.12C10.1139 9.52 10.6419 9.124 11.4699 9.124C12.3099 9.124 13.1619 9.412 13.7859 10.036L14.5899 8.992C13.8459 8.272 12.8379 7.876 11.5899 7.876C9.83794 7.876 8.67394 8.896 8.67394 10.216C8.67394 13.168 13.3419 12.124 13.3419 13.804C13.3419 14.332 12.8859 14.896 11.7339 14.896C10.6179 14.896 9.75394 14.38 9.20194 13.792L8.42194 14.872C9.12994 15.628 10.1979 16.144 11.6739 16.144ZM19.7949 16.144C22.1949 16.144 23.8869 14.392 23.8869 12.004C23.8869 9.616 22.1949 7.864 19.7949 7.864C17.3949 7.864 15.7029 9.616 15.7029 12.004C15.7029 14.392 17.3949 16.144 19.7949 16.144ZM19.7949 14.896C18.1749 14.896 17.1429 13.648 17.1429 12.004C17.1429 10.348 18.1749 9.112 19.7949 9.112C21.4029 9.112 22.4469 10.348 22.4469 12.004C22.4469 13.648 21.4029 14.896 19.7949 14.896ZM30.1707 16V14.764H26.6427V7.996H25.2387V16H30.1707ZM34.4139 16C36.9099 16 38.6019 14.356 38.6019 12.004C38.6019 9.652 36.9099 7.996 34.4139 7.996H31.4379V16H34.4139ZM34.4139 14.764H32.8419V9.232H34.4139C36.2019 9.232 37.1619 10.456 37.1619 12.004C37.1619 13.516 36.1539 14.764 34.4139 14.764ZM46.7715 16.144C49.1715 16.144 50.8635 14.392 50.8635 12.004C50.8635 9.616 49.1715 7.864 46.7715 7.864C44.3715 7.864 42.6795 9.616 42.6795 12.004C42.6795 14.392 44.3715 16.144 46.7715 16.144ZM46.7715 14.896C45.1515 14.896 44.1195 13.648 44.1195 12.004C44.1195 10.348 45.1515 9.112 46.7715 9.112C48.3795 9.112 49.4235 10.348 49.4235 12.004C49.4235 13.648 48.3795 14.896 46.7715 14.896ZM55.6833 16.144C57.9993 16.144 59.1393 14.824 59.1393 12.832V7.996H57.7233V12.796C57.7233 14.068 57.0153 14.896 55.6833 14.896C54.3393 14.896 53.6313 14.068 53.6313 12.796V7.996H52.2153V12.844C52.2153 14.812 53.3553 16.144 55.6833 16.144ZM64.1523 16V9.232H66.5763V7.996H60.3243V9.232H62.7483V16H64.1523Z" fill="white"/>
</svg>
