<svg width="48" height="9" viewBox="0 0 48 9" fill="none" xmlns="http://www.w3.org/2000/svg">
<path d="M4.88379 6.1543C4.88379 6.01758 4.86263 5.89551 4.82031 5.78809C4.78125 5.67741 4.70801 5.57812 4.60059 5.49023C4.49642 5.39909 4.34831 5.3112 4.15625 5.22656C3.96745 5.13867 3.72331 5.04753 3.42383 4.95312C3.0918 4.84896 2.78255 4.73177 2.49609 4.60156C2.20964 4.47135 1.95736 4.31999 1.73926 4.14746C1.52441 3.97493 1.35677 3.77637 1.23633 3.55176C1.11589 3.32389 1.05566 3.06022 1.05566 2.76074C1.05566 2.46777 1.11751 2.20085 1.24121 1.95996C1.36816 1.71908 1.5472 1.51237 1.77832 1.33984C2.00944 1.16406 2.28125 1.02897 2.59375 0.93457C2.90951 0.840169 3.25781 0.792969 3.63867 0.792969C4.16602 0.792969 4.62174 0.888997 5.00586 1.08105C5.39323 1.27311 5.69271 1.53353 5.9043 1.8623C6.11589 2.19108 6.22168 2.56055 6.22168 2.9707H4.88379C4.88379 2.74935 4.83659 2.55404 4.74219 2.38477C4.65104 2.21549 4.51107 2.08203 4.32227 1.98438C4.13672 1.88672 3.90234 1.83789 3.61914 1.83789C3.3457 1.83789 3.11784 1.87858 2.93555 1.95996C2.75651 2.04134 2.62142 2.15202 2.53027 2.29199C2.44238 2.43197 2.39844 2.58822 2.39844 2.76074C2.39844 2.89095 2.42936 3.00814 2.49121 3.1123C2.55306 3.21322 2.64583 3.30924 2.76953 3.40039C2.89323 3.48828 3.04622 3.57129 3.22852 3.64941C3.41406 3.72428 3.62891 3.79915 3.87305 3.87402C4.26367 3.99121 4.60547 4.12142 4.89844 4.26465C5.19466 4.40788 5.44043 4.57064 5.63574 4.75293C5.83431 4.93522 5.98242 5.1403 6.08008 5.36816C6.18099 5.59603 6.23145 5.85482 6.23145 6.14453C6.23145 6.45052 6.17122 6.72396 6.05078 6.96484C5.93034 7.20573 5.75781 7.41081 5.5332 7.58008C5.30859 7.74935 5.03841 7.87793 4.72266 7.96582C4.41016 8.05371 4.06022 8.09766 3.67285 8.09766C3.3278 8.09766 2.986 8.05208 2.64746 7.96094C2.31217 7.86654 2.00781 7.72656 1.73438 7.54102C1.46094 7.35221 1.24284 7.11458 1.08008 6.82812C0.917318 6.53841 0.835938 6.19987 0.835938 5.8125H2.18359C2.18359 6.03711 2.2194 6.22917 2.29102 6.38867C2.36589 6.54492 2.47005 6.6735 2.60352 6.77441C2.74023 6.87207 2.89974 6.94368 3.08203 6.98926C3.26432 7.03483 3.46126 7.05762 3.67285 7.05762C3.94629 7.05762 4.1709 7.02018 4.34668 6.94531C4.52572 6.86719 4.65918 6.75977 4.74707 6.62305C4.83822 6.48633 4.88379 6.33008 4.88379 6.1543ZM13.0234 4.26465V4.63086C13.0234 5.16797 12.9518 5.65137 12.8086 6.08105C12.6654 6.50749 12.4619 6.87044 12.1982 7.16992C11.9346 7.4694 11.6204 7.69889 11.2559 7.8584C10.8913 8.0179 10.486 8.09766 10.04 8.09766C9.60059 8.09766 9.19694 8.0179 8.8291 7.8584C8.46452 7.69889 8.14876 7.4694 7.88184 7.16992C7.61491 6.87044 7.4082 6.50749 7.26172 6.08105C7.11523 5.65137 7.04199 5.16797 7.04199 4.63086V4.26465C7.04199 3.72428 7.11523 3.24089 7.26172 2.81445C7.4082 2.38802 7.61328 2.02507 7.87695 1.72559C8.14062 1.42285 8.45475 1.19173 8.81934 1.03223C9.18717 0.872721 9.59082 0.792969 10.0303 0.792969C10.4762 0.792969 10.8815 0.872721 11.2461 1.03223C11.6107 1.19173 11.9248 1.42285 12.1885 1.72559C12.4554 2.02507 12.6605 2.38802 12.8037 2.81445C12.9502 3.24089 13.0234 3.72428 13.0234 4.26465ZM11.666 4.63086V4.25488C11.666 3.86751 11.6302 3.52734 11.5586 3.23438C11.487 2.93815 11.3812 2.68913 11.2412 2.4873C11.1012 2.28548 10.9287 2.13411 10.7236 2.0332C10.5186 1.92904 10.2874 1.87695 10.0303 1.87695C9.76986 1.87695 9.53874 1.92904 9.33691 2.0332C9.13835 2.13411 8.96908 2.28548 8.8291 2.4873C8.68913 2.68913 8.58171 2.93815 8.50684 3.23438C8.43522 3.52734 8.39941 3.86751 8.39941 4.25488V4.63086C8.39941 5.01497 8.43522 5.35514 8.50684 5.65137C8.58171 5.94759 8.68913 6.19824 8.8291 6.40332C8.97233 6.60514 9.14486 6.75814 9.34668 6.8623C9.5485 6.96647 9.77962 7.01855 10.04 7.01855C10.3005 7.01855 10.5316 6.96647 10.7334 6.8623C10.9352 6.75814 11.1045 6.60514 11.2412 6.40332C11.3812 6.19824 11.487 5.94759 11.5586 5.65137C11.6302 5.35514 11.666 5.01497 11.666 4.63086ZM18.6729 6.94531V8H15.0986V6.94531H18.6729ZM15.5039 0.890625V8H14.1611V0.890625H15.5039ZM21.6953 8H20.1621L20.1719 6.94531H21.6953C22.1087 6.94531 22.4554 6.85417 22.7354 6.67188C23.0153 6.48633 23.2269 6.22103 23.3701 5.87598C23.5133 5.52767 23.585 5.111 23.585 4.62598V4.25977C23.585 3.88542 23.5443 3.55501 23.4629 3.26855C23.3815 2.9821 23.2611 2.74121 23.1016 2.5459C22.9453 2.35059 22.7516 2.20247 22.5205 2.10156C22.2894 2.00065 22.0241 1.9502 21.7246 1.9502H20.1328V0.890625H21.7246C22.1999 0.890625 22.6328 0.970378 23.0234 1.12988C23.4173 1.28939 23.7575 1.51888 24.0439 1.81836C24.3337 2.11458 24.555 2.4694 24.708 2.88281C24.8643 3.29622 24.9424 3.75846 24.9424 4.26953V4.62598C24.9424 5.13379 24.8643 5.59603 24.708 6.0127C24.555 6.42611 24.3337 6.78092 24.0439 7.07715C23.7575 7.37337 23.4157 7.60124 23.0186 7.76074C22.6214 7.92025 22.1803 8 21.6953 8ZM20.9141 0.890625V8H19.5713V0.890625H20.9141ZM34.332 4.26465V4.63086C34.332 5.16797 34.2604 5.65137 34.1172 6.08105C33.974 6.50749 33.7705 6.87044 33.5068 7.16992C33.2432 7.4694 32.929 7.69889 32.5645 7.8584C32.1999 8.0179 31.7946 8.09766 31.3486 8.09766C30.9092 8.09766 30.5055 8.0179 30.1377 7.8584C29.7731 7.69889 29.4574 7.4694 29.1904 7.16992C28.9235 6.87044 28.7168 6.50749 28.5703 6.08105C28.4238 5.65137 28.3506 5.16797 28.3506 4.63086V4.26465C28.3506 3.72428 28.4238 3.24089 28.5703 2.81445C28.7168 2.38802 28.9219 2.02507 29.1855 1.72559C29.4492 1.42285 29.7633 1.19173 30.1279 1.03223C30.4958 0.872721 30.8994 0.792969 31.3389 0.792969C31.7848 0.792969 32.1901 0.872721 32.5547 1.03223C32.9193 1.19173 33.2334 1.42285 33.4971 1.72559C33.764 2.02507 33.9691 2.38802 34.1123 2.81445C34.2588 3.24089 34.332 3.72428 34.332 4.26465ZM32.9746 4.63086V4.25488C32.9746 3.86751 32.9388 3.52734 32.8672 3.23438C32.7956 2.93815 32.6898 2.68913 32.5498 2.4873C32.4098 2.28548 32.2373 2.13411 32.0322 2.0332C31.8271 1.92904 31.596 1.87695 31.3389 1.87695C31.0785 1.87695 30.8473 1.92904 30.6455 2.0332C30.4469 2.13411 30.2777 2.28548 30.1377 2.4873C29.9977 2.68913 29.8903 2.93815 29.8154 3.23438C29.7438 3.52734 29.708 3.86751 29.708 4.25488V4.63086C29.708 5.01497 29.7438 5.35514 29.8154 5.65137C29.8903 5.94759 29.9977 6.19824 30.1377 6.40332C30.2809 6.60514 30.4535 6.75814 30.6553 6.8623C30.8571 6.96647 31.0882 7.01855 31.3486 7.01855C31.609 7.01855 31.8402 6.96647 32.042 6.8623C32.2438 6.75814 32.4131 6.60514 32.5498 6.40332C32.6898 6.19824 32.7956 5.94759 32.8672 5.65137C32.9388 5.35514 32.9746 5.01497 32.9746 4.63086ZM39.4248 0.890625H40.7676V5.6123C40.7676 6.15592 40.6504 6.61328 40.416 6.98438C40.1816 7.35221 39.8626 7.63053 39.459 7.81934C39.0553 8.00488 38.5964 8.09766 38.082 8.09766C37.5612 8.09766 37.0973 8.00488 36.6904 7.81934C36.2835 7.63053 35.9645 7.35221 35.7334 6.98438C35.5023 6.61328 35.3867 6.15592 35.3867 5.6123V0.890625H36.7295V5.6123C36.7295 5.94434 36.7848 6.21615 36.8955 6.42773C37.0062 6.63607 37.1624 6.79069 37.3643 6.8916C37.5661 6.99251 37.8053 7.04297 38.082 7.04297C38.362 7.04297 38.6012 6.99251 38.7998 6.8916C39.0016 6.79069 39.1562 6.63607 39.2637 6.42773C39.3711 6.21615 39.4248 5.94434 39.4248 5.6123V0.890625ZM45.0938 0.890625V8H43.7559V0.890625H45.0938ZM47.3008 0.890625V1.9502H41.5732V0.890625H47.3008Z" fill="#B0B0B0"/>
</svg>
