<svg width="20" height="20" viewBox="0 0 20 20" fill="none" xmlns="http://www.w3.org/2000/svg">
<path d="M8.33325 6.01666L5.50242 8.33333H2.49992V11.6667H5.50242L8.33325 13.9833V6.01666ZM4.90742 13.3333H1.66659C1.44557 13.3333 1.23361 13.2455 1.07733 13.0893C0.921049 12.933 0.833252 12.721 0.833252 12.5V7.5C0.833252 7.27898 0.921049 7.06702 1.07733 6.91074C1.23361 6.75446 1.44557 6.66666 1.66659 6.66666H4.90742L9.31909 3.05666C9.38013 3.00662 9.45413 2.97494 9.53247 2.96533C9.61082 2.95571 9.69029 2.96854 9.76162 3.00233C9.83296 3.03612 9.89323 3.08948 9.93541 3.15619C9.9776 3.22291 9.99997 3.30023 9.99992 3.37916V16.6208C9.99997 16.6998 9.9776 16.7771 9.93541 16.8438C9.89323 16.9105 9.83296 16.9639 9.76162 16.9977C9.69029 17.0315 9.61082 17.0443 9.53247 17.0347C9.45413 17.025 9.38013 16.9934 9.31909 16.9433L4.90825 13.3333H4.90742ZM16.1716 16.7783L14.9916 15.5983C15.7816 14.8954 16.4136 14.0331 16.8459 13.0681C17.2783 12.1031 17.5012 11.0574 17.4999 10C17.501 8.88841 17.2544 7.79054 16.7781 6.78614C16.3019 5.78174 15.6079 4.89603 14.7466 4.19333L15.9299 3.01C16.9453 3.86962 17.761 4.9404 18.32 6.14766C18.879 7.35492 19.1679 8.66959 19.1666 10C19.1666 12.6858 18.0116 15.1017 16.1716 16.7783ZM13.2191 13.8258L12.0341 12.6408C12.4386 12.3297 12.7662 11.9298 12.9915 11.4719C13.2168 11.0139 13.3337 10.5103 13.3333 10C13.3333 8.80833 12.7083 7.7625 11.7666 7.17333L12.9658 5.97416C13.597 6.43849 14.11 7.04487 14.4634 7.74426C14.8168 8.44365 15.0006 9.2164 14.9999 10C14.9999 11.535 14.3083 12.9083 13.2191 13.8258Z" fill="white"/>
</svg>
