<svg width="20" height="20" viewBox="0 0 20 20" fill="none" xmlns="http://www.w3.org/2000/svg">
<path d="M8.3335 6.01666L5.50266 8.33333H2.50016V11.6667H5.50266L8.3335 13.9833V6.01666ZM4.90766 13.3333H1.66683C1.44582 13.3333 1.23385 13.2455 1.07757 13.0893C0.921293 12.933 0.833496 12.721 0.833496 12.5V7.5C0.833496 7.27898 0.921293 7.06702 1.07757 6.91074C1.23385 6.75446 1.44582 6.66666 1.66683 6.66666H4.90766L9.31933 3.05666C9.38037 3.00662 9.45437 2.97494 9.53272 2.96533C9.61106 2.95571 9.69053 2.96854 9.76187 3.00233C9.8332 3.03612 9.89347 3.08948 9.93566 3.15619C9.97785 3.22291 10.0002 3.30023 10.0002 3.37916V16.6208C10.0002 16.6998 9.97785 16.7771 9.93566 16.8438C9.89347 16.9105 9.8332 16.9639 9.76187 16.9977C9.69053 17.0315 9.61106 17.0443 9.53272 17.0347C9.45437 17.025 9.38037 16.9934 9.31933 16.9433L4.9085 13.3333H4.90766ZM17.0118 10L19.9585 12.9467L18.7802 14.125L15.8335 11.1783L12.8868 14.125L11.7085 12.9467L14.6552 10L11.7085 7.05333L12.8868 5.875L15.8335 8.82166L18.7802 5.875L19.9585 7.05333L17.0118 10Z" fill="white"/>
</svg>
