<svg width="36" height="36" viewBox="0 0 36 36" fill="none" xmlns="http://www.w3.org/2000/svg">
<path d="M0 18C0 8.05887 8.05887 0 18 0V0C27.9411 0 36 8.05887 36 18V18C36 27.9411 27.9411 36 18 36V36C8.05887 36 0 27.9411 0 18V18Z" fill="black" fill-opacity="0.4"/>
<path d="M16.333 14.0167L13.5022 16.3334H10.4997V19.6667H13.5022L16.333 21.9834V14.0167ZM12.9072 21.3334H9.66634C9.44533 21.3334 9.23337 21.2456 9.07709 21.0893C8.92081 20.933 8.83301 20.7211 8.83301 20.5001V15.5001C8.83301 15.279 8.92081 15.0671 9.07709 14.9108C9.23337 14.7545 9.44533 14.6667 9.66634 14.6667H12.9072L17.3188 11.0567C17.3799 11.0067 17.4539 10.975 17.5322 10.9654C17.6106 10.9558 17.69 10.9686 17.7614 11.0024C17.8327 11.0362 17.893 11.0895 17.9352 11.1563C17.9774 11.223 17.9997 11.3003 17.9997 11.3792V24.6209C17.9997 24.6998 17.9774 24.7771 17.9352 24.8439C17.893 24.9106 17.8327 24.9639 17.7614 24.9977C17.69 25.0315 17.6106 25.0443 17.5322 25.0347C17.4539 25.0251 17.3799 24.9934 17.3188 24.9434L12.908 21.3334H12.9072ZM25.0113 18.0001L27.958 20.9467L26.7797 22.1251L23.833 19.1784L20.8863 22.1251L19.708 20.9467L22.6547 18.0001L19.708 15.0534L20.8863 13.8751L23.833 16.8217L26.7797 13.8751L27.958 15.0534L25.0113 18.0001Z" fill="white"/>
</svg>
