<svg width="20" height="20" viewBox="0 0 20 20" fill="none" xmlns="http://www.w3.org/2000/svg">
<path fill-rule="evenodd" clip-rule="evenodd" d="M9.99935 8.31362L5.85446 4.17887L2.09155 7.93257L9.99951 15.8212L17.9084 7.93241L14.1455 4.17871L9.99935 8.31362ZM19.7438 8.55139C20.0854 8.21069 20.0854 7.65441 19.7438 7.31366L14.7531 2.3351C14.4165 1.99941 13.8747 1.99938 13.5381 2.33503L9.99951 5.86405L6.46198 2.33518C6.12543 1.99946 5.58348 1.99946 5.24694 2.33518L0.256166 7.31374C-0.0853881 7.65446 -0.0853888 8.21067 0.256165 8.55139L9.39199 17.6649C9.72853 18.0006 10.2705 18.0006 10.607 17.6649L19.7438 8.55139Z" fill="white"/>
</svg>
