<svg width="47" height="16" viewBox="0 0 47 16" fill="none" xmlns="http://www.w3.org/2000/svg">
<path d="M0 4C0 1.79086 1.79086 0 4 0H43C45.2091 0 47 1.79086 47 4V12C47 14.2091 45.2091 16 43 16H4C1.79086 16 0 14.2091 0 12V4Z" fill="#FFF1F1"/>
<path d="M11.0216 6.49H8.94156V4.83H11.0216V6.49ZM7.91156 6.49H6.68156V7.32H13.2716V6.49H12.0516V4.83H13.3216V4H6.63156V4.83H7.91156V6.49ZM12.0716 11.84H7.90156V10.61H12.0716V11.84ZM14.0716 8.87V8.04H5.90156V8.87H9.47156V9.79H6.88156V12.66H13.0816V9.79H10.5016V8.87H14.0716ZM19.7608 5.68V6.52H21.3508V8.37H22.3908V3.74H21.3508V5.68H19.7608ZM20.2408 7.52C18.9108 7.1 18.1308 6.1 18.1308 5.08V4.98H20.0208V4.15H15.1908V4.98H17.0908V5.07C17.0908 6.14 16.2708 7.26 14.8908 7.72L15.3908 8.52C16.4508 8.18 17.2208 7.44 17.6208 6.54C18.0108 7.35 18.7508 8 19.7608 8.32L20.2408 7.52ZM17.5408 11.87V11.07H22.3908V8.78H16.5108V9.59H21.3708V10.31H16.5208V12.68H22.6908V11.87H17.5408ZM30.32 3.75V8.89H31.35V3.75H30.32ZM25.44 9.34V12.66H31.35V9.34H25.44ZM30.34 10.16V11.84H26.45V10.16H30.34ZM26.48 4.19C25.1 4.19 24.08 5.06 24.08 6.32C24.08 7.58 25.1 8.45 26.48 8.45C27.86 8.45 28.87 7.58 28.87 6.32C28.87 5.06 27.86 4.19 26.48 4.19ZM26.48 5.04C27.28 5.04 27.87 5.55 27.87 6.32C27.87 7.1 27.28 7.6 26.48 7.6C25.67 7.6 25.09 7.1 25.09 6.32C25.09 5.55 25.67 5.04 26.48 5.04ZM36.4592 7.81H34.2492V6.42H36.4592V7.81ZM37.4792 4.3H36.4592V5.62H34.2492V4.3H33.2192V8.63H37.4792V4.3ZM34.0192 10.44H38.9292V12.77H39.9592V9.62H34.0192V10.44ZM41.2392 6.02H39.9592V3.73H38.9292V9.17H39.9592V6.87H41.2392V6.02Z" fill="#EF3434"/>
</svg>
