<svg width="34" height="16" viewBox="0 0 34 16" fill="none" xmlns="http://www.w3.org/2000/svg">
<path d="M0 6C0 2.68629 2.68629 0 6 0H34V10C34 13.3137 31.3137 16 28 16H0V6Z" fill="#EF3434"/>
<path d="M5.78871 12H6.97871V6.65H6.99871L10.2287 12H11.5487V4.85H10.3587V10.22H10.3387L7.11871 4.85H5.78871V12ZM16.06 12.15C18.21 12.15 19.57 10.57 19.57 8.42C19.57 6.27 18.21 4.7 16.06 4.7C13.9 4.7 12.55 6.27 12.55 8.42C12.55 10.57 13.9 12.15 16.06 12.15ZM16.06 11.13C14.42 11.13 13.73 9.87 13.73 8.42C13.73 6.98 14.42 5.72 16.06 5.72C17.7 5.72 18.38 6.98 18.38 8.42C18.38 9.87 17.7 11.13 16.06 11.13ZM19.7025 4.85L21.4825 12H22.7425L24.2025 6.4H24.2225L25.6925 12H26.9425L28.7325 4.85H27.5125L26.2925 10.39H26.2725L24.8225 4.85H23.6025L22.1625 10.39H22.1425L20.9225 4.85H19.7025Z" fill="white"/>
</svg>
