<svg width="67" height="16" viewBox="0 0 67 16" fill="none" xmlns="http://www.w3.org/2000/svg">
<path d="M0 4C0 1.79086 1.79086 0 4 0H63C65.2091 0 67 1.79086 67 4V12C67 14.2091 65.2091 16 63 16H4C1.79086 16 0 14.2091 0 12V4Z" fill="#FFF1F1"/>
<path d="M6.16313 12H10.6131V11.08H7.20313V5H6.16313V12ZM13.6761 12.08C15.1861 12.08 16.2661 10.99 16.2661 9.48C16.2661 7.97 15.1861 6.88 13.6761 6.88C12.1661 6.88 11.0761 7.97 11.0761 9.48C11.0761 10.99 12.1661 12.08 13.6761 12.08ZM13.6761 11.23C12.7161 11.23 12.0661 10.51 12.0661 9.48C12.0661 8.45 12.7161 7.73 13.6761 7.73C14.6261 7.73 15.2761 8.45 15.2761 9.48C15.2761 10.51 14.6261 11.23 13.6761 11.23ZM18.1692 12H19.0692L20.2092 8.24L21.3592 12H22.2592L23.8192 6.96H22.8392L21.8092 10.71L20.6792 6.96H19.7592L18.6192 10.71L17.5792 6.96H16.6092L18.1692 12ZM26.8432 4.85V6.07H27.9232V4.85H26.8432ZM26.9032 12H27.8732V6.96H26.9032V12ZM29.1005 12H30.0705V9.27C30.0705 8.39 30.6305 7.75 31.4205 7.75C32.1305 7.75 32.6005 8.29 32.6005 9.09V12H33.5705V8.9C33.5705 7.7 32.8305 6.88 31.6905 6.88C30.9405 6.88 30.3405 7.22 30.0705 7.85V6.96H29.1005V12ZM38.888 12.08C40.028 12.08 40.778 11.49 40.778 10.57C40.778 8.27 37.898 9.55 37.898 8.3C37.898 7.91 38.248 7.65 38.768 7.65C39.198 7.65 39.758 7.88 39.828 8.46H40.738C40.688 7.51 39.908 6.88 38.768 6.88C37.718 6.88 36.978 7.46 36.978 8.33C36.978 10.48 39.838 9.25 39.838 10.59C39.838 10.96 39.468 11.27 38.888 11.27C38.238 11.27 37.818 10.94 37.758 10.36H36.848C36.918 11.42 37.708 12.08 38.888 12.08ZM42.2977 5.38V6.96H41.2677V7.8H42.2977V10.35C42.2977 11.38 42.9477 12 43.9677 12H44.7577V11.16H44.0477C43.5577 11.16 43.2677 10.86 43.2677 10.32V7.8H44.7577V6.96H43.2677V5.38H42.2977ZM47.7777 12.08C49.2877 12.08 50.3677 10.99 50.3677 9.48C50.3677 7.97 49.2877 6.88 47.7777 6.88C46.2677 6.88 45.1777 7.97 45.1777 9.48C45.1777 10.99 46.2677 12.08 47.7777 12.08ZM47.7777 11.23C46.8177 11.23 46.1677 10.51 46.1677 9.48C46.1677 8.45 46.8177 7.73 47.7777 7.73C48.7277 7.73 49.3777 8.45 49.3777 9.48C49.3777 10.51 48.7277 11.23 47.7777 11.23ZM53.5273 12.08C54.8073 12.08 55.7073 11.36 55.8673 10.3H54.9073C54.7473 10.87 54.2373 11.23 53.5473 11.23C52.5473 11.23 52.0373 10.45 52.0373 9.48C52.0373 8.51 52.5373 7.73 53.5473 7.73C54.2273 7.73 54.8073 8.15 54.8973 8.72H55.8673C55.7273 7.58 54.7073 6.88 53.5273 6.88C51.9373 6.88 51.0273 8.09 51.0273 9.48C51.0273 10.87 51.9373 12.08 53.5273 12.08ZM60.256 12H61.456L59.146 8.93L61.266 6.96H60.006L57.816 8.97V4.85H56.836V12H57.816V10.17L58.446 9.59L60.256 12Z" fill="#EF3434"/>
</svg>
