<svg width="48" height="9" viewBox="0 0 48 9" fill="none" xmlns="http://www.w3.org/2000/svg">
<path d="M3.01539 8.08C4.51539 8.08 5.59539 7.33 5.59539 6.05C5.59539 3.38 1.60539 4.51 1.60539 2.81C1.60539 2.22 2.11539 1.84 2.95539 1.84C3.81539 1.84 4.37539 2.31 4.44539 3.03H5.45539C5.36539 1.75 4.38539 0.92 2.95539 0.92C1.54539 0.92 0.565391 1.69 0.565391 2.81C0.565391 5.39 4.53539 4.38 4.53539 6.06C4.53539 6.82 3.89539 7.16 3.01539 7.16C2.02539 7.16 1.43539 6.58 1.35539 5.68H0.345391C0.425391 7.13 1.43539 8.08 3.01539 8.08ZM9.80359 8.08C11.7936 8.08 13.2736 6.56 13.2736 4.5C13.2736 2.44 11.7936 0.92 9.80359 0.92C7.80359 0.92 6.32359 2.44 6.32359 4.5C6.32359 6.56 7.80359 8.08 9.80359 8.08ZM9.80359 7.16C8.41359 7.16 7.38359 6.03 7.38359 4.5C7.38359 2.97 8.41359 1.84 9.80359 1.84C11.1936 1.84 12.2136 2.97 12.2136 4.5C12.2136 6.03 11.1936 7.16 9.80359 7.16ZM14.3877 8H18.8377V7.08H15.4277V1H14.3877V8ZM19.6807 8H21.8307C23.7807 8 25.3607 6.78 25.3607 4.5C25.3607 2.22 23.7807 1 21.8307 1H19.6807V8ZM20.7207 7.08V1.92H21.7707C23.0707 1.92 24.2907 2.65 24.2907 4.5C24.2907 6.35 23.0707 7.08 21.7707 7.08H20.7207ZM31.9227 8.08C33.9127 8.08 35.3927 6.56 35.3927 4.5C35.3927 2.44 33.9127 0.92 31.9227 0.92C29.9227 0.92 28.4427 2.44 28.4427 4.5C28.4427 6.56 29.9227 8.08 31.9227 8.08ZM31.9227 7.16C30.5327 7.16 29.5027 6.03 29.5027 4.5C29.5027 2.97 30.5327 1.84 31.9227 1.84C33.3127 1.84 34.3327 2.97 34.3327 4.5C34.3327 6.03 33.3127 7.16 31.9227 7.16ZM39.0669 8.08C40.6769 8.08 41.7569 7.15 41.7569 5.55V1H40.7569V5.58C40.7569 6.58 40.0769 7.15 39.0669 7.15C38.0669 7.15 37.3869 6.58 37.3869 5.58V1H36.3869V5.55C36.3869 7.15 37.4669 8.08 39.0669 8.08ZM44.6398 8H45.6798V1.92H47.8698V1H42.4498V1.92H44.6398V8Z" fill="#AFAFAF"/>
</svg>
