<svg width="41" height="20" viewBox="0 0 41 20" fill="none" xmlns="http://www.w3.org/2000/svg">
<path d="M0 10C0 4.47715 4.47715 0 10 0H31C36.5228 0 41 4.47715 41 10C41 15.5228 36.5228 20 31 20H10C4.47715 20 0 15.5228 0 10Z" fill="#EF3434"/>
<path d="M9.08134 14.5H14.6013V13.12H10.6773V6.1H9.08134V14.5ZM15.5501 14.5H17.1461V6.1H15.5501V14.5ZM21.0773 14.5H22.6253L25.6853 6.1H24.1013L21.8453 12.544L19.6133 6.1H18.0173L21.0773 14.5ZM26.5657 14.5H32.2897V13.12H28.1497V10.876H31.3657V9.508H28.1497V7.468H32.1577V6.1H26.5657V14.5Z" fill="white"/>
</svg>
