<svg width="16" height="16" viewBox="0 0 16 16" fill="none" xmlns="http://www.w3.org/2000/svg">
<circle cx="8" cy="10" r="2" fill="white" stroke="white" stroke-width="2"/>
<path d="M0.105573 8.55279C-0.141416 9.04676 0.0588079 9.64744 0.552786 9.89443C1.04676 10.1414 1.64744 9.94119 1.89443 9.44721L0.105573 8.55279ZM14.1056 9.44721C14.3526 9.94119 14.9532 10.1414 15.4472 9.89443C15.9412 9.64744 16.1414 9.04676 15.8944 8.55279L14.1056 9.44721ZM1.89443 9.44721C2.11673 9.00261 2.7566 7.86101 3.80792 6.8436C4.85393 5.83134 6.24291 5 8 5V3C5.55709 3 3.69607 4.16866 2.41708 5.4064C1.1434 6.63899 0.383272 7.99739 0.105573 8.55279L1.89443 9.44721ZM8 5C9.75708 5 11.1461 5.83134 12.1921 6.8436C13.2434 7.86101 13.8833 9.00261 14.1056 9.44721L15.8944 8.55279C15.6167 7.99739 14.8566 6.63899 13.5829 5.4064C12.3039 4.16866 10.4429 3 8 3V5Z" fill="white"/>
</svg>
