<svg width="72" height="72" viewBox="0 0 72 72" fill="none" xmlns="http://www.w3.org/2000/svg">
<rect width="72" height="72" rx="36" fill="black" fill-opacity="0.6"/>
<path d="M35.9999 22.6667C28.6359 22.6667 22.6666 28.636 22.6666 36C22.6666 43.364 28.6359 49.3333 35.9999 49.3333C43.3639 49.3333 49.3333 43.364 49.3333 36H46.6666C46.6666 41.8907 41.8906 46.6667 35.9999 46.6667C30.1093 46.6667 25.3333 41.8907 25.3333 36C25.3333 30.1093 30.1093 25.3333 35.9999 25.3333C39.2853 25.3333 42.2239 26.8187 44.1799 29.1533L41.3333 32H49.3333V24L46.0706 27.2613C43.6266 24.448 40.0213 22.6667 35.9999 22.6667Z" fill="white"/>
<rect x="0.5" y="0.5" width="71" height="71" rx="35.5" stroke="white" stroke-opacity="0.2"/>
</svg>
