<svg width="72" height="72" viewBox="0 0 72 72" fill="none" xmlns="http://www.w3.org/2000/svg">
<rect width="72" height="72" rx="36" fill="black" fill-opacity="0.8"/>
<path d="M45.835 36.5546L31.703 45.9759C31.6026 46.0427 31.486 46.081 31.3655 46.0868C31.2451 46.0925 31.1253 46.0655 31.019 46.0086C30.9127 45.9517 30.8238 45.867 30.7618 45.7636C30.6998 45.6601 30.6671 45.5418 30.667 45.4212V26.5786C30.6671 26.458 30.6998 26.3397 30.7618 26.2362C30.8238 26.1328 30.9127 26.0481 31.019 25.9912C31.1253 25.9342 31.2451 25.9072 31.3655 25.913C31.486 25.9188 31.6026 25.9571 31.703 26.0239L45.835 35.4452C45.9263 35.5061 46.0012 35.5886 46.0529 35.6853C46.1047 35.7821 46.1318 35.8901 46.1318 35.9999C46.1318 36.1096 46.1047 36.2177 46.0529 36.3144C46.0012 36.4112 45.9263 36.4937 45.835 36.5546Z" fill="white"/>
<rect x="0.5" y="0.5" width="71" height="71" rx="35.5" stroke="white" stroke-opacity="0.2"/>
</svg>
