<svg width="35" height="20" viewBox="0 0 35 20" fill="none" xmlns="http://www.w3.org/2000/svg">
<path d="M0 10C0 4.47715 4.47715 0 10 0H25C30.5228 0 35 4.47715 35 10V10C35 15.5228 30.5228 20 25 20H10C4.47715 20 0 15.5228 0 10V10Z" fill="white" fill-opacity="0.2"/>
<path d="M9.02984 14.0001H10.4898L13.2898 6.55005H11.7698L9.78984 12.1101L7.75984 6.55005H6.20984L9.02984 14.0001Z" fill="white"/>
<path d="M17.2218 14.1301C19.4818 14.1301 21.0818 12.4901 21.0818 10.2801C21.0818 8.07005 19.4818 6.43005 17.2218 6.43005C14.9618 6.43005 13.3618 8.07005 13.3618 10.2801C13.3618 12.4901 14.9618 14.1301 17.2218 14.1301ZM17.2218 12.8801C15.8118 12.8801 14.8718 11.8001 14.8718 10.2801C14.8718 8.76005 15.8118 7.68005 17.2218 7.68005C18.6318 7.68005 19.5718 8.76005 19.5718 10.2801C19.5718 11.8001 18.6318 12.8801 17.2218 12.8801Z" fill="white"/>
<path d="M22.1016 14.0001H24.5616C27.2416 14.0001 28.6916 12.4101 28.6916 10.2701C28.6916 8.13005 27.2416 6.55005 24.5716 6.55005H22.1016V14.0001ZM24.6416 7.72005C26.2816 7.72005 27.1816 8.81005 27.1816 10.2701C27.1816 11.7301 26.2816 12.8301 24.6416 12.8301H23.5316V7.72005H24.6416Z" fill="white"/>
</svg>
