<svg width="40" height="40" viewBox="0 0 40 40" fill="none" xmlns="http://www.w3.org/2000/svg">
<path fill-rule="evenodd" clip-rule="evenodd" d="M20 40C31.0457 40 40 31.0457 40 20C40 8.9543 31.0457 0 20 0C8.9543 0 0 8.9543 0 20C0 31.0457 8.9543 40 20 40Z" fill="#F7F7F7"/>
<path d="M17.9329 12.7188C18.5418 13.1064 19.1518 13.6696 19.8335 14.4418C20.5151 13.6696 21.1252 13.1064 21.7341 12.7188C22.6185 12.1561 23.4416 12 24.3335 12C26.1429 12 27.5501 12.7672 28.4848 13.9182C29.3997 15.0449 29.8335 16.499 29.8335 17.8889C29.8335 20.4168 28.0891 22.1592 27.5633 22.6844L20.5406 29.7071C20.1501 30.0976 19.5169 30.0976 19.1264 29.7071L12.1037 22.6844C11.5779 22.1592 9.8335 20.4168 9.8335 17.8889C9.8335 16.499 10.2673 15.0449 11.1822 13.9182C12.1169 12.7672 13.5241 12 15.3335 12C16.2254 12 17.0485 12.1561 17.9329 12.7188Z" fill="#3665F3"/>
</svg>
