<svg width="16" height="15" viewBox="0 0 16 15" fill="none" xmlns="http://www.w3.org/2000/svg">
<path d="M11.6838 0C11.7008 0 11.6668 0 11.6838 0C10.5548 0 9.44871 0.46432 8.66167 1.28729C8.42066 1.54638 8.19965 1.82375 7.99964 2.11738C7.76163 1.76584 7.49162 1.43767 7.19361 1.13591C6.44058 0.371863 5.38253 0 4.30948 0H4.25948C3.32544 0 2.3904 0.276357 1.66836 0.878856C-0.483732 2.67416 -0.473732 5.66227 1.23834 7.42404L7.27361 13.9052C7.46262 14.1074 7.72563 14.2222 7.99964 14.2222C8.27466 14.2222 8.53767 14.1074 8.72668 13.9052L14.7429 7.44335C15.548 6.62545 16 5.51698 16 4.35973C16 3.20249 15.548 2.09401 14.7429 1.27612C13.9369 0.458224 12.8459 0 11.7078 0H11.6838Z" fill="#EC4348"/>
</svg>
