<svg width="56" height="28" viewBox="0 0 56 28" fill="none" xmlns="http://www.w3.org/2000/svg">
<path d="M0 14C0 6.26801 6.26801 0 14 0H42C49.732 0 56 6.26801 56 14V14C56 21.732 49.732 28 42 28H14C6.26801 28 0 21.732 0 14V14Z" fill="url(#paint0_linear_508_13298)"/>
<path d="M20.232 18V9.06H18.468V15.108L14.532 9.06H12.792V18H14.556V11.952L18.492 18H20.232ZM31.1594 13.536C31.1594 10.872 29.2274 8.916 26.5034 8.916C23.7794 8.916 21.8474 10.872 21.8474 13.536C21.8474 16.2 23.7794 18.156 26.5034 18.156C29.2274 18.156 31.1594 16.2 31.1594 13.536ZM29.1794 13.536C29.1794 15.3 28.1234 16.536 26.5034 16.536C24.8834 16.536 23.8274 15.3 23.8274 13.536C23.8274 11.772 24.8834 10.536 26.5034 10.536C28.1234 10.536 29.1794 11.772 29.1794 13.536ZM33.91 18H36.13L37.714 11.172L39.286 18H41.506L43.246 9.06H41.326L40.27 15.456L38.818 9.06H36.61L35.302 15.408L34.114 9.06H32.182L33.91 18Z" fill="white"/>
<defs>
<linearGradient id="paint0_linear_508_13298" x1="56" y1="3.5" x2="6.28485" y2="27.3389" gradientUnits="userSpaceOnUse">
<stop stop-color="#E0103A"/>
<stop offset="1" stop-color="#DB3C07"/>
</linearGradient>
</defs>
</svg>
