<svg width="24" height="24" viewBox="0 0 24 24" fill="none" xmlns="http://www.w3.org/2000/svg">
<path d="M7.63185 18.9668H9.69728C10.5322 18.9668 10.9629 18.5361 10.9629 17.7012V5.60742C10.9629 4.75488 10.5322 4.35059 9.69728 4.3418H7.63185C6.79688 4.3418 6.36622 4.77246 6.36622 5.60742V17.7012C6.35743 18.5361 6.7881 18.9668 7.63185 18.9668ZM14.3115 18.9668H16.3682C17.2031 18.9668 17.6338 18.5361 17.6338 17.7012V5.60742C17.6338 4.75488 17.2031 4.3418 16.3682 4.3418H14.3115C13.4678 4.3418 13.0459 4.77246 13.0459 5.60742V17.7012C13.0459 18.5361 13.4678 18.9668 14.3115 18.9668Z" fill="white"/>
</svg>
