<svg width="28" height="28" viewBox="0 0 28 28" fill="none" xmlns="http://www.w3.org/2000/svg">
<path d="M15.8787 13.9989L25.6056 4.28446C26.1279 3.7621 26.1279 2.91458 25.6056 2.39221C25.0833 1.86985 24.2358 1.86985 23.7135 2.39221L14 12.12L4.28648 2.39221C3.94803 2.05374 3.45636 1.92182 2.994 2.04575C2.53298 2.16968 2.17189 2.5308 2.04797 2.99187C1.92405 3.45427 2.05596 3.94599 2.3944 4.28446L12.1213 13.9989L2.3944 23.7133C2.14257 23.9638 2 24.3036 2 24.6594C2 25.0152 2.14257 25.355 2.3944 25.6056C2.6449 25.8574 2.98468 26 3.34044 26C3.6962 26 4.03598 25.8574 4.28648 25.6056L14 15.8778L23.7135 25.6056C23.964 25.8574 24.3038 26 24.6596 26C25.0153 26 25.3551 25.8574 25.6056 25.6056C25.8574 25.355 26 25.0152 26 24.6594C26 24.3036 25.8574 23.9638 25.6056 23.7133L15.8787 13.9989Z" fill="#EF3434" stroke="#EF3434" stroke-width="2.5" stroke-linecap="round" stroke-linejoin="round"/>
</svg>
