<svg width="66" height="11" viewBox="0 0 66 11" fill="none" xmlns="http://www.w3.org/2000/svg">
<path d="M4.032 10.156C5.88 10.156 7.404 9.196 7.404 7.408C7.404 5.884 6.312 5.056 4.488 4.684L3.648 4.516C2.832 4.36 2.328 4.072 2.328 3.436C2.328 2.956 2.76 2.464 3.768 2.464C4.428 2.464 5.208 2.776 5.328 3.748H7.176C7.032 2.044 5.508 0.916 3.84 0.916C2.016 0.916 0.528 1.876 0.528 3.52C0.528 5.008 1.632 5.848 3.3 6.184L4.128 6.352C5.052 6.544 5.604 6.916 5.604 7.54C5.604 8.212 5.016 8.62 4.116 8.62C3.228 8.62 2.472 8.344 2.28 7.144H0.432C0.66 9.076 2.076 10.156 4.032 10.156ZM18.1282 5.536C18.1282 2.872 16.1962 0.916 13.4722 0.916C10.7482 0.916 8.81619 2.872 8.81619 5.536C8.81619 8.2 10.7482 10.156 13.4722 10.156C16.1962 10.156 18.1282 8.2 18.1282 5.536ZM16.1482 5.536C16.1482 7.3 15.0922 8.536 13.4722 8.536C11.8522 8.536 10.7962 7.3 10.7962 5.536C10.7962 3.772 11.8522 2.536 13.4722 2.536C15.0922 2.536 16.1482 3.772 16.1482 5.536ZM19.7451 10H25.1211V8.416H21.6171V1.06H19.7451V10ZM26.5967 10H29.6207C32.8607 10 34.6007 8.116 34.6007 5.524C34.6007 2.932 32.8607 1.06 29.6327 1.06H26.5967V10ZM29.7407 2.572C31.6127 2.572 32.6327 3.832 32.6327 5.524C32.6327 7.204 31.6127 8.488 29.7407 8.488H28.4687V2.572H29.7407ZM48.3587 5.536C48.3587 2.872 46.4267 0.916 43.7027 0.916C40.9787 0.916 39.0467 2.872 39.0467 5.536C39.0467 8.2 40.9787 10.156 43.7027 10.156C46.4267 10.156 48.3587 8.2 48.3587 5.536ZM46.3787 5.536C46.3787 7.3 45.3227 8.536 43.7027 8.536C42.0827 8.536 41.0267 7.3 41.0267 5.536C41.0267 3.772 42.0827 2.536 43.7027 2.536C45.3227 2.536 46.3787 3.772 46.3787 5.536ZM53.5516 10.156C55.7476 10.156 57.2116 8.848 57.2116 6.748V1.06H55.3396V6.664C55.3396 7.912 54.7036 8.596 53.5516 8.596C52.4116 8.596 51.7756 7.912 51.7756 6.664V1.06H49.9036V6.748C49.9036 8.824 51.3676 10.156 53.5516 10.156ZM61.0418 10H62.9138V2.644H65.4218V1.06H58.5458V2.644H61.0418V10Z" fill="#AFAFAF"/>
</svg>
